<?xml version="1.0" standalone="no"?>
<svg xmlns:xlink="http://www.w3.org/1999/xlink" id="wave" style="transform:rotate(0deg); transition: 0.3s" viewBox="0 0 1440 390" version="1.1" xmlns="http://www.w3.org/2000/svg"><defs><linearGradient id="sw-gradient-0" x1="0" x2="0" y1="1" y2="0"><stop stop-color="rgba(25, 118, 210, 1)" offset="0%"/><stop stop-color="rgba(3.167, 87.356, 218.892, 1)" offset="100%"/></linearGradient></defs><path style="transform:translate(0, 0px); opacity:1" fill="url(#sw-gradient-0)" d="M0,156L40,143C80,130,160,104,240,104C320,104,400,130,480,143C560,156,640,156,720,162.5C800,169,880,182,960,175.5C1040,169,1120,143,1200,110.5C1280,78,1360,39,1440,52C1520,65,1600,130,1680,169C1760,208,1840,221,1920,208C2000,195,2080,156,2160,136.5C2240,117,2320,117,2400,143C2480,169,2560,221,2640,240.5C2720,260,2800,247,2880,221C2960,195,3040,156,3120,123.5C3200,91,3280,65,3360,91C3440,117,3520,195,3600,208C3680,221,3760,169,3840,175.5C3920,182,4000,247,4080,240.5C4160,234,4240,156,4320,149.5C4400,143,4480,208,4560,208C4640,208,4720,143,4800,149.5C4880,156,4960,234,5040,279.5C5120,325,5200,338,5280,292.5C5360,247,5440,143,5520,104C5600,65,5680,91,5720,104L5760,117L5760,390L5720,390C5680,390,5600,390,5520,390C5440,390,5360,390,5280,390C5200,390,5120,390,5040,390C4960,390,4880,390,4800,390C4720,390,4640,390,4560,390C4480,390,4400,390,4320,390C4240,390,4160,390,4080,390C4000,390,3920,390,3840,390C3760,390,3680,390,3600,390C3520,390,3440,390,3360,390C3280,390,3200,390,3120,390C3040,390,2960,390,2880,390C2800,390,2720,390,2640,390C2560,390,2480,390,2400,390C2320,390,2240,390,2160,390C2080,390,2000,390,1920,390C1840,390,1760,390,1680,390C1600,390,1520,390,1440,390C1360,390,1280,390,1200,390C1120,390,1040,390,960,390C880,390,800,390,720,390C640,390,560,390,480,390C400,390,320,390,240,390C160,390,80,390,40,390L0,390Z"/></svg>