<svg id="svg" version="1.1" xmlns="http://www.w3.org/2000/svg" xmlns:xlink="http://www.w3.org/1999/xlink" width="400" height="51.388888888888886" viewBox="0, 0, 400,51.388888888888886"><g id="svgg"><path id="path0" d="M166.439 1.418 C 166.145 1.571,165.502 1.667,164.763 1.667 C 163.966 1.667,163.455 1.749,163.240 1.911 C 163.062 2.046,162.640 2.158,162.302 2.161 C 161.963 2.164,161.644 2.235,161.592 2.319 C 161.541 2.403,161.199 2.522,160.832 2.583 C 160.466 2.645,160.167 2.764,160.167 2.848 C 160.167 2.932,160.022 3.000,159.845 3.000 C 159.668 3.000,159.411 3.112,159.274 3.250 C 159.136 3.387,158.872 3.500,158.687 3.500 C 158.502 3.500,158.290 3.594,158.217 3.710 C 158.143 3.825,157.802 4.068,157.458 4.248 C 157.115 4.428,156.833 4.634,156.833 4.705 C 156.833 4.775,156.753 4.833,156.655 4.833 C 156.557 4.833,156.364 4.946,156.226 5.083 C 156.089 5.221,155.832 5.333,155.655 5.333 C 155.478 5.333,155.333 5.410,155.333 5.504 C 155.333 5.598,155.146 5.746,154.917 5.833 C 154.688 5.920,154.500 6.069,154.500 6.163 C 154.500 6.256,154.415 6.333,154.311 6.333 C 154.207 6.333,153.948 6.521,153.735 6.750 C 153.523 6.979,153.272 7.167,153.178 7.167 C 152.904 7.167,150.707 9.472,150.469 10.010 C 150.350 10.280,150.193 10.500,150.122 10.500 C 150.050 10.500,149.920 10.688,149.833 10.917 C 149.746 11.146,149.598 11.333,149.504 11.333 C 149.410 11.333,149.333 11.404,149.333 11.491 C 149.333 11.578,149.165 11.834,148.958 12.059 C 148.752 12.284,148.437 12.756,148.258 13.109 C 148.079 13.461,147.826 13.880,147.694 14.038 C 147.542 14.221,147.427 14.861,147.380 15.788 C 147.338 16.592,147.198 17.620,147.069 18.072 C 146.939 18.524,146.833 19.092,146.833 19.334 C 146.833 19.576,146.730 20.106,146.604 20.512 C 146.478 20.918,146.280 21.662,146.163 22.167 C 146.046 22.671,145.855 23.308,145.737 23.583 C 145.619 23.858,145.424 24.327,145.304 24.625 C 145.184 24.923,145.029 25.167,144.959 25.167 C 144.767 25.167,144.807 28.964,145.000 29.083 C 145.092 29.140,145.167 29.580,145.167 30.061 C 145.167 30.573,145.268 31.071,145.411 31.260 C 145.546 31.438,145.658 31.821,145.661 32.111 C 145.664 32.402,145.792 32.889,145.945 33.195 C 146.399 34.101,146.452 34.236,146.575 34.797 C 146.640 35.092,146.762 35.333,146.847 35.333 C 146.931 35.333,147.000 35.486,147.000 35.672 C 147.000 35.858,147.112 36.054,147.250 36.106 C 147.387 36.159,147.500 36.378,147.500 36.593 C 147.500 36.808,147.594 37.043,147.710 37.117 C 147.825 37.190,148.068 37.531,148.248 37.875 C 148.428 38.219,148.634 38.500,148.705 38.500 C 148.775 38.500,148.833 38.598,148.833 38.719 C 148.833 38.839,149.058 39.153,149.333 39.417 C 149.608 39.680,149.833 40.013,149.833 40.156 C 149.834 40.299,150.077 40.692,150.375 41.029 C 150.673 41.365,151.104 41.868,151.333 42.147 C 151.563 42.425,151.844 42.656,151.958 42.660 C 152.073 42.663,152.167 42.779,152.167 42.917 C 152.167 43.054,152.242 43.167,152.333 43.167 C 152.425 43.167,152.795 43.462,153.156 43.822 C 153.786 44.452,154.930 45.228,155.542 45.438 C 155.702 45.494,155.833 45.643,155.833 45.769 C 155.833 45.896,155.987 46.000,156.175 46.000 C 156.362 46.000,156.690 46.187,156.902 46.417 C 157.114 46.646,157.364 46.833,157.457 46.833 C 157.550 46.833,157.719 46.946,157.833 47.083 C 157.947 47.221,158.174 47.333,158.336 47.333 C 158.498 47.333,158.674 47.446,158.727 47.583 C 158.780 47.721,158.932 47.833,159.065 47.833 C 159.198 47.833,159.519 47.939,159.778 48.068 C 160.775 48.564,161.657 48.842,163.833 49.346 C 165.056 49.629,180.434 49.762,180.759 49.492 C 180.879 49.393,181.413 49.269,181.947 49.217 C 182.480 49.164,182.992 49.063,183.083 48.992 C 183.175 48.921,183.532 48.810,183.877 48.746 C 184.222 48.682,184.545 48.562,184.595 48.481 C 184.645 48.400,184.860 48.333,185.073 48.333 C 185.285 48.333,185.546 48.228,185.653 48.100 C 185.760 47.971,186.031 47.820,186.257 47.763 C 186.482 47.707,186.667 47.587,186.667 47.497 C 186.667 47.407,186.807 47.333,186.980 47.333 C 187.152 47.333,187.386 47.221,187.500 47.083 C 187.614 46.946,187.811 46.833,187.937 46.833 C 188.063 46.833,188.167 46.766,188.167 46.685 C 188.167 46.603,188.354 46.489,188.583 46.432 C 188.813 46.374,189.000 46.253,189.000 46.163 C 189.000 46.074,189.112 46.000,189.250 46.000 C 189.387 46.000,189.500 45.887,189.500 45.750 C 189.500 45.596,189.656 45.500,189.908 45.500 C 190.133 45.500,190.377 45.398,190.450 45.274 C 190.523 45.150,190.904 44.848,191.296 44.603 C 192.181 44.049,193.925 42.311,194.870 41.040 C 195.261 40.514,195.629 40.046,195.687 40.000 C 195.935 39.805,197.000 38.316,197.000 38.165 C 197.000 38.074,197.074 38.000,197.163 38.000 C 197.253 38.000,197.374 37.812,197.432 37.583 C 197.489 37.354,197.603 37.167,197.685 37.167 C 197.766 37.167,197.833 37.021,197.833 36.843 C 197.833 36.665,197.901 36.478,197.983 36.427 C 198.457 36.134,198.834 34.937,198.841 33.703 C 198.845 32.996,198.946 30.854,199.064 28.943 C 199.241 26.098,199.241 24.862,199.064 22.110 C 198.945 20.262,198.845 18.103,198.841 17.312 C 198.835 16.244,198.769 15.821,198.583 15.667 C 198.446 15.553,198.333 15.316,198.333 15.141 C 198.333 14.966,198.221 14.780,198.083 14.727 C 197.946 14.674,197.833 14.452,197.833 14.232 C 197.833 14.013,197.776 13.833,197.705 13.833 C 197.634 13.833,197.392 13.496,197.167 13.083 C 196.941 12.671,196.699 12.333,196.628 12.333 C 196.558 12.333,196.500 12.249,196.500 12.145 C 196.500 12.042,196.256 11.675,195.958 11.330 C 194.892 10.096,194.667 9.803,194.667 9.653 C 194.667 9.569,194.554 9.500,194.417 9.500 C 194.279 9.500,194.167 9.396,194.167 9.268 C 194.167 9.140,194.054 8.992,193.917 8.940 C 193.779 8.887,193.663 8.748,193.659 8.630 C 193.655 8.513,193.457 8.267,193.220 8.083 C 192.982 7.900,192.533 7.506,192.222 7.208 C 191.910 6.910,191.589 6.667,191.508 6.667 C 191.427 6.667,191.336 6.610,191.306 6.540 C 191.211 6.325,189.879 5.333,189.684 5.333 C 189.583 5.333,189.500 5.266,189.500 5.183 C 189.500 5.100,189.294 4.952,189.042 4.854 C 188.462 4.628,187.168 3.902,186.940 3.673 C 186.845 3.578,186.632 3.500,186.467 3.500 C 186.302 3.500,186.167 3.439,186.167 3.365 C 186.167 3.194,185.064 2.704,184.363 2.564 C 184.068 2.505,183.786 2.392,183.737 2.312 C 183.687 2.232,183.435 2.167,183.176 2.167 C 182.917 2.167,182.490 2.055,182.227 1.918 C 181.932 1.764,181.273 1.666,180.500 1.662 C 179.667 1.658,179.142 1.574,178.926 1.411 C 178.442 1.045,167.143 1.051,166.439 1.418 M176.500 7.510 C 178.288 7.674,180.817 8.160,181.583 8.486 C 185.244 10.046,188.293 12.501,190.340 15.536 C 190.886 16.346,191.333 17.039,191.333 17.076 C 191.333 17.113,191.548 17.617,191.810 18.197 C 192.396 19.492,192.474 19.704,192.754 20.750 C 192.876 21.208,193.017 21.696,193.067 21.833 C 193.218 22.250,192.717 22.711,191.963 22.848 C 191.040 23.017,189.820 23.338,189.493 23.499 C 189.352 23.569,188.827 23.681,188.327 23.748 C 187.826 23.816,187.342 23.924,187.250 23.989 C 187.158 24.055,186.258 24.232,185.250 24.384 C 182.773 24.758,182.376 24.808,180.207 25.029 L 178.331 25.219 179.340 26.318 C 179.895 26.922,180.665 27.767,181.050 28.195 C 181.783 29.011,183.406 29.330,184.323 28.839 C 184.488 28.751,185.064 28.596,185.603 28.496 C 187.765 28.094,188.762 27.891,189.000 27.803 C 189.530 27.607,192.271 26.963,192.667 26.940 C 193.217 26.909,193.301 27.739,192.916 29.401 C 191.428 35.835,186.099 41.181,179.500 42.861 C 177.353 43.408,167.981 43.408,165.833 42.861 C 163.745 42.329,161.289 41.275,160.487 40.566 C 160.342 40.438,160.173 40.333,160.110 40.333 C 159.787 40.333,157.344 38.126,156.355 36.941 C 153.731 33.797,152.665 31.385,152.237 27.624 C 152.100 26.416,152.287 26.124,153.050 26.358 C 155.389 27.072,157.668 27.663,158.092 27.665 C 158.371 27.666,158.671 27.733,158.758 27.815 C 158.919 27.965,160.236 28.255,161.750 28.473 C 162.208 28.539,162.678 28.652,162.793 28.724 C 163.220 28.990,163.625 28.632,164.231 27.456 C 164.573 26.793,164.989 26.025,165.154 25.750 C 165.633 24.956,165.389 24.735,163.882 24.597 C 162.539 24.474,160.875 24.161,160.583 23.977 C 160.492 23.919,159.932 23.816,159.340 23.749 C 158.748 23.681,158.148 23.561,158.007 23.481 C 157.866 23.401,157.173 23.190,156.467 23.012 C 155.761 22.834,155.049 22.617,154.884 22.530 C 154.202 22.171,152.877 22.121,152.673 22.445 C 152.355 22.950,152.633 20.501,153.017 19.407 C 155.446 12.497,161.261 8.233,169.333 7.444 C 170.697 7.310,174.727 7.348,176.500 7.510 M168.256 24.490 C 168.191 24.595,168.257 24.863,168.402 25.085 C 168.548 25.307,168.667 25.603,168.667 25.744 C 168.667 25.885,168.737 26.000,168.822 26.000 C 168.908 26.000,169.025 26.150,169.083 26.333 C 169.141 26.516,169.455 27.060,169.780 27.542 C 170.105 28.023,170.437 28.567,170.518 28.750 C 171.117 30.102,171.749 30.413,171.616 29.292 C 171.570 28.902,171.444 27.721,171.335 26.667 C 171.226 25.613,171.088 24.700,171.027 24.640 C 170.807 24.420,168.381 24.289,168.256 24.490 M172.958 24.621 L 172.333 24.687 172.347 25.885 C 172.360 26.995,172.491 28.125,172.761 29.458 L 172.871 30.000 174.346 30.000 C 176.235 30.000,176.313 29.863,176.610 26.022 C 176.733 24.438,176.299 24.272,172.958 24.621 M166.771 25.625 C 166.716 25.785,166.521 26.142,166.337 26.417 C 166.154 26.692,165.951 27.029,165.888 27.167 C 165.824 27.304,165.486 27.887,165.136 28.461 C 164.786 29.036,164.500 29.611,164.500 29.739 C 164.500 29.868,164.393 30.185,164.263 30.445 C 164.133 30.704,163.900 31.254,163.746 31.667 C 163.592 32.079,163.398 32.547,163.316 32.706 C 162.986 33.345,163.683 35.165,164.375 35.472 C 164.444 35.503,164.500 35.596,164.500 35.679 C 164.500 35.960,165.072 36.500,165.370 36.500 C 165.533 36.500,165.667 36.383,165.667 36.240 C 165.667 35.886,166.180 34.288,166.357 34.092 C 166.436 34.005,166.500 33.828,166.500 33.700 C 166.500 33.486,166.624 33.161,167.245 31.750 C 167.365 31.475,167.560 30.988,167.677 30.667 C 167.794 30.346,168.109 29.682,168.376 29.191 L 168.863 28.299 168.454 27.524 C 168.230 27.098,167.904 26.488,167.731 26.167 C 167.263 25.298,166.946 25.119,166.771 25.625 M177.499 27.619 C 177.498 28.296,177.398 28.942,177.249 29.227 C 176.896 29.904,176.929 30.060,177.574 30.779 C 177.890 31.131,178.637 32.168,179.235 33.084 C 179.832 34.000,180.380 34.825,180.452 34.917 C 180.524 35.008,180.732 35.365,180.913 35.708 C 181.094 36.052,181.295 36.333,181.360 36.333 C 181.425 36.333,181.530 36.502,181.595 36.708 C 181.660 36.915,181.851 37.260,182.020 37.477 L 182.327 37.871 182.622 37.353 C 182.784 37.068,182.973 36.835,183.042 36.834 C 183.110 36.834,183.167 36.693,183.167 36.520 C 183.167 36.348,183.279 36.114,183.417 36.000 C 183.554 35.886,183.667 35.676,183.667 35.533 C 183.667 35.390,183.755 35.030,183.862 34.732 C 184.039 34.243,184.015 34.135,183.612 33.607 C 183.367 33.285,183.166 32.961,183.165 32.886 C 183.163 32.811,182.882 32.448,182.540 32.079 C 182.197 31.710,181.553 30.922,181.109 30.329 C 180.077 28.951,178.203 26.865,177.806 26.652 C 177.523 26.501,177.500 26.574,177.499 27.619 " stroke="none" fill="#0b1118" fill-rule="evenodd"></path><path id="path1" d="M233.126 13.195 L 233.083 26.390 232.305 25.612 C 231.877 25.184,231.445 24.833,231.346 24.833 C 231.248 24.833,231.167 24.753,231.167 24.654 C 231.167 24.420,227.413 20.667,227.179 20.667 C 227.081 20.667,227.000 20.586,227.000 20.488 C 227.000 20.254,223.246 16.500,223.012 16.500 C 222.914 16.500,222.833 16.422,222.833 16.326 C 222.833 16.097,219.073 12.333,218.844 12.333 C 218.746 12.333,218.667 12.255,218.667 12.160 C 218.667 11.930,214.906 8.167,214.677 8.167 C 214.580 8.167,214.500 8.086,214.500 7.987 C 214.500 7.753,213.081 6.333,212.846 6.333 C 212.748 6.333,212.667 6.260,212.667 6.171 C 212.667 6.082,212.224 5.557,211.684 5.004 L 210.701 4.000 204.767 4.000 L 198.833 4.000 198.839 10.625 C 198.844 17.195,198.954 18.946,199.504 21.250 C 199.818 22.562,199.782 28.443,199.450 30.167 C 198.484 35.177,198.578 39.000,199.669 39.000 C 199.759 39.000,199.833 39.075,199.833 39.167 C 199.833 39.384,201.783 41.333,202.000 41.333 C 202.092 41.333,202.167 41.414,202.167 41.513 C 202.167 41.747,203.586 43.167,203.820 43.167 C 203.919 43.167,204.000 43.242,204.000 43.333 C 204.000 43.551,205.949 45.500,206.167 45.500 C 206.258 45.500,206.333 45.581,206.333 45.680 C 206.333 45.914,207.753 47.333,207.987 47.333 C 208.086 47.333,208.167 47.408,208.167 47.500 C 208.167 47.811,210.164 49.667,210.499 49.667 C 210.828 49.667,210.832 49.528,210.874 35.970 C 210.914 23.148,210.935 22.292,211.196 22.554 C 211.350 22.707,211.557 22.833,211.655 22.833 C 211.753 22.833,211.833 22.946,211.833 23.083 C 211.833 23.221,211.946 23.333,212.083 23.333 C 212.221 23.333,212.333 23.414,212.333 23.513 C 212.333 23.746,213.254 24.667,213.487 24.667 C 213.586 24.667,213.667 24.779,213.667 24.917 C 213.667 25.054,213.779 25.167,213.917 25.167 C 214.054 25.167,214.167 25.279,214.167 25.417 C 214.167 25.554,214.279 25.667,214.417 25.667 C 214.554 25.667,214.667 25.747,214.667 25.846 C 214.667 26.079,215.587 27.000,215.821 27.000 C 215.919 27.000,216.000 27.113,216.000 27.250 C 216.000 27.387,216.112 27.500,216.250 27.500 C 216.387 27.500,216.500 27.581,216.500 27.679 C 216.500 27.913,217.421 28.833,217.654 28.833 C 217.753 28.833,217.833 28.946,217.833 29.083 C 217.833 29.221,217.946 29.333,218.083 29.333 C 218.221 29.333,218.333 29.446,218.333 29.583 C 218.333 29.721,218.446 29.833,218.583 29.833 C 218.721 29.833,218.833 29.914,218.833 30.013 C 218.833 30.246,219.754 31.167,219.987 31.167 C 220.086 31.167,220.167 31.279,220.167 31.417 C 220.167 31.554,220.279 31.667,220.417 31.667 C 220.554 31.667,220.667 31.747,220.667 31.846 C 220.667 32.079,221.587 33.000,221.821 33.000 C 221.919 33.000,222.000 33.112,222.000 33.250 C 222.000 33.387,222.112 33.500,222.250 33.500 C 222.387 33.500,222.500 33.612,222.500 33.750 C 222.500 33.887,222.612 34.000,222.750 34.000 C 222.887 34.000,223.000 34.080,223.000 34.179 C 223.000 34.409,223.424 34.833,223.655 34.833 C 223.753 34.833,223.833 34.946,223.833 35.083 C 223.833 35.221,223.946 35.333,224.083 35.333 C 224.221 35.333,224.333 35.446,224.333 35.583 C 224.333 35.721,224.446 35.833,224.583 35.833 C 224.721 35.833,224.833 35.914,224.833 36.013 C 224.833 36.246,225.754 37.167,225.987 37.167 C 226.086 37.167,226.167 37.279,226.167 37.417 C 226.167 37.554,226.279 37.667,226.417 37.667 C 226.554 37.667,226.667 37.779,226.667 37.917 C 226.667 38.054,226.779 38.167,226.917 38.167 C 227.054 38.167,227.167 38.247,227.167 38.345 C 227.167 38.576,227.591 39.000,227.821 39.000 C 227.920 39.000,228.000 39.112,228.000 39.250 C 228.000 39.387,228.112 39.500,228.250 39.500 C 228.387 39.500,228.500 39.612,228.500 39.750 C 228.500 39.887,228.612 40.000,228.750 40.000 C 228.887 40.000,229.000 40.081,229.000 40.179 C 229.000 40.413,229.921 41.333,230.154 41.333 C 230.253 41.333,230.333 41.446,230.333 41.583 C 230.333 41.721,230.446 41.833,230.583 41.833 C 230.721 41.833,230.833 41.946,230.833 42.083 C 230.833 42.221,230.946 42.333,231.083 42.333 C 231.221 42.333,231.333 42.414,231.333 42.512 C 231.333 42.743,231.757 43.167,231.988 43.167 C 232.086 43.167,232.167 43.279,232.167 43.417 C 232.167 43.554,232.279 43.667,232.417 43.667 C 232.554 43.667,232.667 43.779,232.667 43.917 C 232.667 44.054,232.779 44.167,232.917 44.167 C 233.054 44.167,233.167 44.241,233.167 44.331 C 233.167 45.140,233.371 45.167,239.607 45.167 C 242.833 45.167,245.591 45.121,245.736 45.066 C 246.054 44.944,246.150 11.333,245.833 11.333 C 245.742 11.333,245.667 11.221,245.667 11.083 C 245.667 10.946,245.588 10.833,245.492 10.833 C 245.396 10.833,245.144 10.646,244.931 10.417 C 244.719 10.188,244.460 10.000,244.356 10.000 C 244.252 10.000,244.167 9.887,244.167 9.750 C 244.167 9.612,244.054 9.500,243.917 9.500 C 243.779 9.500,243.667 9.387,243.667 9.250 C 243.667 9.112,243.592 9.000,243.500 9.000 C 243.408 9.000,243.333 8.887,243.333 8.750 C 243.333 8.612,243.221 8.500,243.083 8.500 C 242.946 8.500,242.833 8.425,242.833 8.333 C 242.833 8.242,242.721 8.167,242.583 8.167 C 242.446 8.167,242.333 8.054,242.333 7.917 C 242.333 7.779,242.221 7.667,242.083 7.667 C 241.946 7.667,241.833 7.586,241.833 7.487 C 241.833 7.253,240.414 5.833,240.180 5.833 C 240.081 5.833,240.000 5.721,240.000 5.583 C 240.000 5.446,239.887 5.333,239.750 5.333 C 239.612 5.333,239.500 5.253,239.500 5.154 C 239.500 4.921,238.579 4.000,238.346 4.000 C 238.247 4.000,238.167 3.887,238.167 3.750 C 238.167 3.612,238.054 3.500,237.917 3.500 C 237.779 3.500,237.667 3.419,237.667 3.321 C 237.667 3.087,236.746 2.167,236.513 2.167 C 236.414 2.167,236.333 2.054,236.333 1.917 C 236.333 1.779,236.221 1.667,236.083 1.667 C 235.946 1.667,235.833 1.554,235.833 1.417 C 235.833 1.279,235.721 1.167,235.583 1.167 C 235.446 1.167,235.333 1.082,235.333 0.977 C 235.333 0.550,234.485 0.000,233.826 0.000 L 233.169 0.000 233.126 13.195 M331.667 13.333 C 331.667 25.074,331.637 26.667,331.417 26.667 C 331.279 26.667,331.167 26.554,331.167 26.417 C 331.167 26.279,331.092 26.167,331.000 26.167 C 330.908 26.167,330.833 26.054,330.833 25.917 C 330.833 25.779,330.721 25.667,330.583 25.667 C 330.446 25.667,330.333 25.554,330.333 25.417 C 330.333 25.279,330.221 25.167,330.083 25.167 C 329.946 25.167,329.833 25.054,329.833 24.917 C 329.833 24.779,329.753 24.667,329.655 24.667 C 329.424 24.667,329.000 24.243,329.000 24.012 C 329.000 23.914,328.887 23.833,328.750 23.833 C 328.612 23.833,328.500 23.721,328.500 23.583 C 328.500 23.446,328.387 23.333,328.250 23.333 C 328.112 23.333,328.000 23.221,328.000 23.083 C 328.000 22.946,327.887 22.833,327.750 22.833 C 327.612 22.833,327.500 22.758,327.500 22.667 C 327.500 22.575,327.387 22.500,327.250 22.500 C 327.112 22.500,327.000 22.387,327.000 22.250 C 327.000 22.113,326.925 22.000,326.833 22.000 C 326.742 22.000,326.667 21.887,326.667 21.750 C 326.667 21.613,326.554 21.500,326.417 21.500 C 326.279 21.500,326.167 21.387,326.167 21.250 C 326.167 21.112,326.094 21.000,326.006 21.000 C 325.788 21.000,324.833 20.055,324.833 19.839 C 324.833 19.744,324.721 19.667,324.583 19.667 C 324.446 19.667,324.333 19.554,324.333 19.417 C 324.333 19.279,324.221 19.167,324.083 19.167 C 323.946 19.167,323.833 19.054,323.833 18.917 C 323.833 18.779,323.721 18.667,323.583 18.667 C 323.446 18.667,323.333 18.592,323.333 18.500 C 323.333 18.408,323.221 18.333,323.083 18.333 C 322.946 18.333,322.833 18.221,322.833 18.083 C 322.833 17.946,322.758 17.833,322.667 17.833 C 322.575 17.833,322.500 17.721,322.500 17.583 C 322.500 17.446,322.387 17.333,322.250 17.333 C 322.112 17.333,322.000 17.221,322.000 17.083 C 322.000 16.946,321.887 16.833,321.750 16.833 C 321.612 16.833,321.500 16.758,321.500 16.667 C 321.500 16.575,321.387 16.500,321.250 16.500 C 321.112 16.500,321.000 16.387,321.000 16.250 C 321.000 16.112,320.925 16.000,320.833 16.000 C 320.742 16.000,320.667 15.887,320.667 15.750 C 320.667 15.612,320.554 15.500,320.417 15.500 C 320.279 15.500,320.167 15.387,320.167 15.250 C 320.167 15.112,320.054 15.000,319.917 15.000 C 319.779 15.000,319.667 14.887,319.667 14.750 C 319.667 14.612,319.554 14.500,319.417 14.500 C 319.279 14.500,319.167 14.425,319.167 14.333 C 319.167 14.242,319.054 14.167,318.917 14.167 C 318.779 14.167,318.667 14.054,318.667 13.917 C 318.667 13.779,318.592 13.667,318.500 13.667 C 318.408 13.667,318.333 13.554,318.333 13.417 C 318.333 13.279,318.221 13.167,318.083 13.167 C 317.946 13.167,317.833 13.054,317.833 12.917 C 317.833 12.779,317.721 12.667,317.583 12.667 C 317.446 12.667,317.333 12.592,317.333 12.500 C 317.333 12.408,317.221 12.333,317.083 12.333 C 316.946 12.333,316.833 12.221,316.833 12.083 C 316.833 11.946,316.758 11.833,316.667 11.833 C 316.575 11.833,316.500 11.721,316.500 11.583 C 316.500 11.446,316.387 11.333,316.250 11.333 C 316.112 11.333,316.000 11.221,316.000 11.083 C 316.000 10.946,315.887 10.833,315.750 10.833 C 315.612 10.833,315.500 10.721,315.500 10.583 C 315.500 10.446,315.387 10.333,315.250 10.333 C 315.112 10.333,315.000 10.258,315.000 10.167 C 315.000 10.075,314.887 10.000,314.750 10.000 C 314.612 10.000,314.500 9.887,314.500 9.750 C 314.500 9.612,314.425 9.500,314.333 9.500 C 314.242 9.500,314.167 9.387,314.167 9.250 C 314.167 9.112,314.054 9.000,313.917 9.000 C 313.779 9.000,313.667 8.887,313.667 8.750 C 313.667 8.612,313.554 8.500,313.417 8.500 C 313.279 8.500,313.167 8.425,313.167 8.333 C 313.167 8.242,313.054 8.167,312.917 8.167 C 312.779 8.167,312.667 8.054,312.667 7.917 C 312.667 7.779,312.592 7.667,312.500 7.667 C 312.408 7.667,312.333 7.554,312.333 7.417 C 312.333 7.279,312.221 7.167,312.083 7.167 C 311.946 7.167,311.833 7.054,311.833 6.917 C 311.833 6.779,311.755 6.667,311.659 6.667 C 311.563 6.667,311.310 6.479,311.098 6.250 C 310.886 6.021,310.627 5.833,310.523 5.833 C 310.418 5.833,310.333 5.721,310.333 5.583 C 310.333 5.446,310.258 5.333,310.167 5.333 C 310.075 5.333,310.000 5.221,310.000 5.083 C 310.000 4.946,309.887 4.833,309.750 4.833 C 309.612 4.833,309.500 4.721,309.500 4.583 C 309.500 4.446,309.387 4.333,309.250 4.333 C 309.112 4.333,309.000 4.258,309.000 4.167 C 309.000 4.056,298.722 4.000,278.500 4.000 L 248.000 4.000 248.000 24.584 L 248.000 45.168 271.542 45.126 L 295.083 45.083 295.083 39.083 L 295.083 33.083 277.708 33.041 L 260.333 32.998 260.333 31.916 L 260.333 30.833 274.750 30.833 L 289.167 30.833 289.167 24.583 L 289.167 18.333 274.750 18.333 L 260.333 18.333 260.333 17.417 L 260.333 16.500 274.653 16.500 C 288.255 16.500,289.500 16.472,289.500 16.171 C 289.500 16.046,290.985 14.500,291.105 14.500 C 291.241 14.500,291.833 13.822,291.833 13.667 C 291.833 13.575,291.890 13.499,291.958 13.497 C 292.158 13.493,293.667 12.027,293.667 11.838 C 293.667 11.744,293.760 11.663,293.875 11.659 C 293.990 11.655,294.308 11.358,294.583 11.000 C 294.858 10.642,295.141 10.345,295.211 10.341 C 295.281 10.337,295.711 9.940,296.166 9.458 L 296.993 8.583 296.997 23.375 C 297.000 36.411,297.030 38.167,297.250 38.167 C 297.387 38.167,297.500 38.279,297.500 38.417 C 297.500 38.554,297.580 38.667,297.679 38.667 C 297.909 38.667,298.333 39.091,298.333 39.321 C 298.333 39.420,298.446 39.500,298.583 39.500 C 298.721 39.500,298.833 39.612,298.833 39.750 C 298.833 39.887,298.946 40.000,299.083 40.000 C 299.221 40.000,299.333 40.112,299.333 40.250 C 299.333 40.387,299.446 40.500,299.583 40.500 C 299.721 40.500,299.833 40.580,299.833 40.679 C 299.833 40.909,300.257 41.333,300.488 41.333 C 300.586 41.333,300.667 41.446,300.667 41.583 C 300.667 41.721,300.779 41.833,300.917 41.833 C 301.054 41.833,301.167 41.946,301.167 42.083 C 301.167 42.221,301.279 42.333,301.417 42.333 C 301.554 42.333,301.667 42.446,301.667 42.583 C 301.667 42.721,301.747 42.833,301.845 42.833 C 302.076 42.833,302.500 43.257,302.500 43.488 C 302.500 43.586,302.612 43.667,302.750 43.667 C 302.887 43.667,303.000 43.779,303.000 43.917 C 303.000 44.054,303.112 44.167,303.250 44.167 C 303.387 44.167,303.500 44.279,303.500 44.417 C 303.500 44.554,303.612 44.667,303.750 44.667 C 303.887 44.667,304.000 44.747,304.000 44.845 C 304.000 45.076,304.424 45.500,304.655 45.500 C 304.753 45.500,304.833 45.612,304.833 45.750 C 304.833 45.887,304.946 46.000,305.083 46.000 C 305.221 46.000,305.333 46.112,305.333 46.250 C 305.333 46.387,305.446 46.500,305.583 46.500 C 305.721 46.500,305.833 46.612,305.833 46.750 C 305.833 46.887,305.914 47.000,306.012 47.000 C 306.243 47.000,306.667 47.424,306.667 47.655 C 306.667 47.753,306.779 47.833,306.917 47.833 C 307.054 47.833,307.167 47.946,307.167 48.083 C 307.167 48.221,307.279 48.333,307.417 48.333 C 307.554 48.333,307.667 48.446,307.667 48.583 C 307.667 48.721,307.779 48.833,307.917 48.833 C 308.054 48.833,308.167 48.919,308.167 49.023 C 308.167 49.303,308.695 49.655,309.125 49.661 L 309.500 49.667 309.500 36.250 C 309.500 24.435,309.530 22.833,309.750 22.833 C 309.887 22.833,310.000 22.946,310.000 23.083 C 310.000 23.221,310.112 23.333,310.250 23.333 C 310.387 23.333,310.500 23.414,310.500 23.513 C 310.500 23.746,311.421 24.667,311.654 24.667 C 311.753 24.667,311.833 24.779,311.833 24.917 C 311.833 25.054,311.946 25.167,312.083 25.167 C 312.221 25.167,312.333 25.240,312.333 25.329 C 312.333 25.540,313.793 27.000,314.004 27.000 C 314.094 27.000,314.167 27.113,314.167 27.250 C 314.167 27.387,314.279 27.500,314.417 27.500 C 314.554 27.500,314.667 27.581,314.667 27.679 C 314.667 27.913,315.587 28.833,315.821 28.833 C 315.919 28.833,316.000 28.946,316.000 29.083 C 316.000 29.221,316.112 29.333,316.250 29.333 C 316.387 29.333,316.500 29.406,316.500 29.496 C 316.500 29.707,317.960 31.167,318.171 31.167 C 318.260 31.167,318.333 31.279,318.333 31.417 C 318.333 31.554,318.446 31.667,318.583 31.667 C 318.721 31.667,318.833 31.744,318.833 31.839 C 318.833 32.055,319.788 33.000,320.006 33.000 C 320.094 33.000,320.167 33.112,320.167 33.250 C 320.167 33.387,320.279 33.500,320.417 33.500 C 320.554 33.500,320.667 33.572,320.667 33.661 C 320.667 33.879,321.612 34.833,321.828 34.833 C 321.922 34.833,322.000 34.946,322.000 35.083 C 322.000 35.221,322.112 35.333,322.250 35.333 C 322.387 35.333,322.500 35.446,322.500 35.583 C 322.500 35.721,322.612 35.833,322.750 35.833 C 322.887 35.833,323.000 35.911,323.000 36.006 C 323.000 36.221,323.955 37.167,324.172 37.167 C 324.261 37.167,324.333 37.279,324.333 37.417 C 324.333 37.554,324.446 37.667,324.583 37.667 C 324.721 37.667,324.833 37.739,324.833 37.828 C 324.833 38.045,325.779 39.000,325.994 39.000 C 326.089 39.000,326.167 39.112,326.167 39.250 C 326.167 39.387,326.279 39.500,326.417 39.500 C 326.554 39.500,326.667 39.612,326.667 39.750 C 326.667 39.887,326.779 40.000,326.917 40.000 C 327.054 40.000,327.167 40.078,327.167 40.172 C 327.167 40.388,328.121 41.333,328.339 41.333 C 328.428 41.333,328.500 41.446,328.500 41.583 C 328.500 41.721,328.612 41.833,328.750 41.833 C 328.887 41.833,329.000 41.906,329.000 41.994 C 329.000 42.212,329.945 43.167,330.161 43.167 C 330.256 43.167,330.333 43.279,330.333 43.417 C 330.333 43.554,330.446 43.667,330.583 43.667 C 330.721 43.667,330.833 43.779,330.833 43.917 C 330.833 44.054,330.946 44.167,331.083 44.167 C 331.221 44.167,331.333 44.252,331.333 44.355 C 331.333 45.122,331.710 45.167,338.109 45.167 L 344.167 45.167 344.167 28.000 C 344.167 13.820,344.128 10.833,343.945 10.833 C 343.823 10.833,343.623 10.646,343.500 10.417 C 343.377 10.188,343.177 10.000,343.055 10.000 C 342.933 10.000,342.833 9.887,342.833 9.750 C 342.833 9.612,342.721 9.500,342.583 9.500 C 342.446 9.500,342.333 9.387,342.333 9.250 C 342.333 9.112,342.221 9.000,342.083 9.000 C 341.946 9.000,341.833 8.900,341.833 8.778 C 341.833 8.656,341.646 8.456,341.417 8.333 C 341.188 8.211,341.000 8.011,341.000 7.889 C 341.000 7.766,340.887 7.667,340.750 7.667 C 340.612 7.667,340.500 7.554,340.500 7.417 C 340.500 7.279,340.387 7.167,340.250 7.167 C 340.112 7.167,340.000 7.054,340.000 6.917 C 340.000 6.779,339.920 6.667,339.821 6.667 C 339.591 6.667,339.167 6.243,339.167 6.012 C 339.167 5.914,339.054 5.833,338.917 5.833 C 338.779 5.833,338.667 5.721,338.667 5.583 C 338.667 5.446,338.554 5.333,338.417 5.333 C 338.279 5.333,338.167 5.221,338.167 5.083 C 338.167 4.946,338.097 4.833,338.013 4.833 C 337.813 4.833,336.833 3.854,336.833 3.654 C 336.833 3.569,336.721 3.500,336.583 3.500 C 336.446 3.500,336.333 3.387,336.333 3.250 C 336.333 3.112,336.264 3.000,336.180 3.000 C 336.095 3.000,335.344 2.325,334.509 1.500 C 333.110 0.117,332.940 0.000,332.329 0.000 L 331.667 0.000 331.667 13.333 M19.333 4.167 C 19.333 4.260,18.868 4.333,18.270 4.333 C 17.529 4.333,17.145 4.409,17.000 4.583 C 16.881 4.727,16.517 4.833,16.146 4.833 C 15.683 4.833,15.500 4.904,15.500 5.083 C 15.500 5.264,15.315 5.333,14.833 5.333 C 14.352 5.333,14.167 5.403,14.167 5.583 C 14.167 5.750,14.000 5.833,13.667 5.833 C 13.392 5.833,13.167 5.900,13.167 5.982 C 13.167 6.064,12.979 6.178,12.750 6.235 C 12.521 6.293,12.333 6.413,12.333 6.503 C 12.333 6.593,12.221 6.667,12.083 6.667 C 11.946 6.667,11.833 6.779,11.833 6.917 C 11.833 7.083,11.667 7.167,11.333 7.167 C 11.000 7.167,10.833 7.250,10.833 7.417 C 10.833 7.554,10.758 7.667,10.667 7.667 C 10.575 7.667,10.500 7.779,10.500 7.917 C 10.500 8.074,10.341 8.167,10.070 8.167 C 9.636 8.167,8.167 9.443,8.167 9.820 C 8.167 9.919,8.082 10.000,7.977 10.000 C 7.873 10.000,7.614 10.188,7.402 10.417 C 7.190 10.646,6.937 10.833,6.841 10.833 C 6.745 10.833,6.667 10.946,6.667 11.083 C 6.667 11.221,6.592 11.333,6.500 11.333 C 6.408 11.333,6.333 11.558,6.333 11.833 C 6.333 12.167,6.250 12.333,6.083 12.333 C 5.946 12.333,5.833 12.408,5.833 12.500 C 5.833 12.592,5.721 12.667,5.583 12.667 C 5.446 12.667,5.333 12.779,5.333 12.917 C 5.333 13.054,5.221 13.167,5.083 13.167 C 4.917 13.167,4.833 13.333,4.833 13.667 C 4.833 14.000,4.750 14.167,4.583 14.167 C 4.428 14.167,4.333 14.324,4.333 14.583 C 4.333 14.813,4.258 15.000,4.167 15.000 C 4.075 15.000,4.000 15.225,4.000 15.500 C 4.000 15.833,3.917 16.000,3.750 16.000 C 3.594 16.000,3.500 16.157,3.500 16.417 C 3.500 16.676,3.406 16.833,3.250 16.833 C 3.065 16.833,3.000 17.028,3.000 17.583 C 3.000 18.139,2.935 18.333,2.750 18.333 C 2.558 18.333,2.500 18.546,2.500 19.250 C 2.500 19.754,2.425 20.167,2.333 20.167 C 2.226 20.167,2.167 21.806,2.167 24.750 C 2.167 27.694,2.226 29.333,2.333 29.333 C 2.425 29.333,2.500 29.711,2.500 30.172 C 2.500 30.764,2.574 31.039,2.750 31.106 C 2.913 31.169,3.000 31.428,3.000 31.851 C 3.000 32.317,3.071 32.500,3.250 32.500 C 3.417 32.500,3.500 32.667,3.500 33.000 C 3.500 33.333,3.583 33.500,3.750 33.500 C 3.917 33.500,4.000 33.667,4.000 34.000 C 4.000 34.275,4.074 34.500,4.163 34.500 C 4.253 34.500,4.374 34.687,4.432 34.917 C 4.489 35.146,4.603 35.333,4.685 35.333 C 4.766 35.333,4.833 35.446,4.833 35.583 C 4.833 35.721,4.946 35.833,5.083 35.833 C 5.222 35.833,5.333 35.981,5.333 36.167 C 5.333 36.514,5.877 37.167,6.167 37.167 C 6.258 37.167,6.333 37.279,6.333 37.417 C 6.333 37.554,6.408 37.667,6.500 37.667 C 6.592 37.667,6.667 37.779,6.667 37.917 C 6.667 38.054,6.779 38.167,6.917 38.167 C 7.054 38.167,7.167 38.279,7.167 38.417 C 7.167 38.554,7.279 38.667,7.417 38.667 C 7.572 38.667,7.667 38.824,7.667 39.083 C 7.667 39.417,7.750 39.500,8.083 39.500 C 8.343 39.500,8.500 39.594,8.500 39.750 C 8.500 39.887,8.612 40.000,8.750 40.000 C 8.887 40.000,9.000 40.112,9.000 40.250 C 9.000 40.387,9.112 40.500,9.250 40.500 C 9.387 40.500,9.500 40.612,9.500 40.750 C 9.500 40.887,9.612 41.000,9.750 41.000 C 9.887 41.000,10.000 41.075,10.000 41.167 C 10.000 41.258,10.112 41.333,10.250 41.333 C 10.387 41.333,10.500 41.446,10.500 41.583 C 10.500 41.739,10.657 41.833,10.917 41.833 C 11.176 41.833,11.333 41.928,11.333 42.083 C 11.333 42.221,11.446 42.333,11.583 42.333 C 11.721 42.333,11.833 42.407,11.833 42.497 C 11.833 42.587,12.021 42.707,12.250 42.765 C 12.479 42.822,12.667 42.936,12.667 43.018 C 12.667 43.100,12.892 43.167,13.167 43.167 C 13.500 43.167,13.667 43.250,13.667 43.417 C 13.667 43.597,13.852 43.667,14.333 43.667 C 14.815 43.667,15.000 43.736,15.000 43.917 C 15.000 44.074,15.159 44.167,15.429 44.167 C 15.664 44.167,15.970 44.279,16.107 44.417 C 16.246 44.556,16.653 44.667,17.024 44.667 C 17.394 44.667,17.802 44.778,17.940 44.917 C 18.317 45.293,32.688 45.293,33.000 44.917 C 33.131 44.758,33.499 44.667,34.003 44.667 C 34.556 44.667,34.827 44.591,34.894 44.417 C 34.946 44.279,35.179 44.167,35.411 44.167 C 35.675 44.167,35.833 44.073,35.833 43.917 C 35.833 43.736,36.019 43.667,36.505 43.667 C 36.949 43.667,37.210 43.582,37.273 43.417 C 37.326 43.279,37.548 43.167,37.768 43.167 C 37.987 43.167,38.167 43.100,38.167 43.018 C 38.167 42.936,38.354 42.822,38.583 42.765 C 38.812 42.707,39.000 42.587,39.000 42.497 C 39.000 42.407,39.112 42.333,39.250 42.333 C 39.387 42.333,39.500 42.221,39.500 42.083 C 39.500 41.917,39.667 41.833,40.000 41.833 C 40.333 41.833,40.500 41.750,40.500 41.583 C 40.500 41.446,40.581 41.333,40.679 41.333 C 40.913 41.333,41.833 40.413,41.833 40.179 C 41.833 40.081,41.946 40.000,42.083 40.000 C 42.221 40.000,42.333 39.896,42.333 39.768 C 42.333 39.641,42.524 39.488,42.757 39.430 C 42.990 39.371,43.144 39.264,43.099 39.192 C 43.054 39.120,43.164 38.955,43.342 38.827 C 43.521 38.698,43.667 38.497,43.667 38.380 C 43.667 38.263,43.779 38.167,43.917 38.167 C 44.054 38.167,44.167 38.054,44.167 37.917 C 44.167 37.779,44.279 37.667,44.417 37.667 C 44.554 37.667,44.667 37.554,44.667 37.417 C 44.667 37.279,44.748 37.167,44.848 37.167 C 45.110 37.167,45.655 36.468,45.661 36.125 C 45.664 35.965,45.742 35.833,45.833 35.833 C 45.925 35.833,46.000 35.721,46.000 35.583 C 46.000 35.446,46.112 35.333,46.250 35.333 C 46.406 35.333,46.500 35.176,46.500 34.917 C 46.500 34.657,46.594 34.500,46.750 34.500 C 46.917 34.500,47.000 34.333,47.000 34.000 C 47.000 33.667,47.083 33.500,47.250 33.500 C 47.424 33.500,47.500 33.325,47.500 32.927 C 47.500 32.611,47.575 32.307,47.667 32.250 C 47.758 32.193,47.833 31.926,47.833 31.657 C 47.833 31.332,47.918 31.167,48.083 31.167 C 48.275 31.167,48.333 30.954,48.333 30.250 C 48.333 29.546,48.391 29.333,48.583 29.333 C 48.792 29.333,48.833 28.993,48.833 27.268 C 48.833 25.586,48.880 25.185,49.083 25.106 C 49.221 25.054,49.333 24.826,49.333 24.600 C 49.333 24.375,49.221 24.078,49.083 23.940 C 48.893 23.750,48.833 23.272,48.833 21.929 C 48.833 20.474,48.790 20.167,48.583 20.167 C 48.391 20.167,48.333 19.954,48.333 19.250 C 48.333 18.546,48.275 18.333,48.083 18.333 C 47.898 18.333,47.833 18.139,47.833 17.583 C 47.833 17.171,47.758 16.833,47.667 16.833 C 47.575 16.833,47.500 16.646,47.500 16.417 C 47.500 16.157,47.406 16.000,47.250 16.000 C 47.075 16.000,47.000 15.823,47.000 15.411 C 47.000 15.042,46.907 14.787,46.750 14.727 C 46.612 14.674,46.500 14.527,46.500 14.399 C 46.500 14.271,46.387 14.167,46.250 14.167 C 46.091 14.167,46.000 14.007,46.000 13.727 C 46.000 13.473,45.825 13.126,45.583 12.902 C 45.354 12.690,45.167 12.397,45.167 12.253 C 45.167 12.108,45.054 11.946,44.917 11.894 C 44.779 11.841,44.667 11.693,44.667 11.566 C 44.667 11.438,44.554 11.333,44.417 11.333 C 44.279 11.333,44.167 11.221,44.167 11.083 C 44.167 10.946,44.054 10.833,43.917 10.833 C 43.779 10.833,43.667 10.753,43.667 10.655 C 43.667 10.424,43.243 10.000,43.012 10.000 C 42.914 10.000,42.833 9.887,42.833 9.750 C 42.833 9.612,42.721 9.500,42.583 9.500 C 42.446 9.500,42.333 9.387,42.333 9.250 C 42.333 9.112,42.221 9.000,42.083 9.000 C 41.946 9.000,41.833 8.915,41.833 8.810 C 41.833 8.530,41.305 8.178,40.875 8.172 C 40.655 8.169,40.500 8.063,40.500 7.917 C 40.500 7.779,40.387 7.667,40.250 7.667 C 40.112 7.667,40.000 7.554,40.000 7.417 C 40.000 7.261,39.843 7.167,39.583 7.167 C 39.324 7.167,39.167 7.072,39.167 6.917 C 39.167 6.779,39.054 6.667,38.917 6.667 C 38.779 6.667,38.667 6.598,38.667 6.513 C 38.667 6.429,38.442 6.310,38.167 6.250 C 37.892 6.190,37.667 6.071,37.667 5.987 C 37.667 5.902,37.479 5.833,37.250 5.833 C 36.991 5.833,36.833 5.739,36.833 5.583 C 36.833 5.398,36.639 5.333,36.083 5.333 C 35.528 5.333,35.333 5.269,35.333 5.083 C 35.333 4.904,35.150 4.833,34.684 4.833 C 34.262 4.833,34.002 4.746,33.940 4.583 C 33.868 4.397,33.570 4.333,32.765 4.333 C 32.172 4.333,31.640 4.258,31.583 4.167 C 31.518 4.060,29.276 4.000,25.407 4.000 C 21.469 4.000,19.333 4.059,19.333 4.167 M51.167 21.083 C 51.167 36.157,51.196 38.167,51.417 38.167 C 51.554 38.167,51.667 38.279,51.667 38.417 C 51.667 38.554,51.747 38.667,51.845 38.667 C 52.076 38.667,52.500 39.091,52.500 39.321 C 52.500 39.420,52.612 39.500,52.750 39.500 C 52.887 39.500,53.000 39.612,53.000 39.750 C 53.000 39.887,53.112 40.000,53.250 40.000 C 53.387 40.000,53.500 40.112,53.500 40.250 C 53.500 40.387,53.612 40.500,53.750 40.500 C 53.887 40.500,54.000 40.580,54.000 40.679 C 54.000 40.909,54.424 41.333,54.655 41.333 C 54.753 41.333,54.833 41.446,54.833 41.583 C 54.833 41.721,54.946 41.833,55.083 41.833 C 55.221 41.833,55.333 41.946,55.333 42.083 C 55.333 42.221,55.446 42.333,55.583 42.333 C 55.721 42.333,55.833 42.446,55.833 42.583 C 55.833 42.721,55.914 42.833,56.012 42.833 C 56.243 42.833,56.667 43.257,56.667 43.488 C 56.667 43.586,56.779 43.667,56.917 43.667 C 57.054 43.667,57.167 43.779,57.167 43.917 C 57.167 44.054,57.279 44.167,57.417 44.167 C 57.554 44.167,57.667 44.279,57.667 44.417 C 57.667 44.554,57.779 44.667,57.917 44.667 C 58.054 44.667,58.167 44.747,58.167 44.845 C 58.167 45.076,58.591 45.500,58.821 45.500 C 58.920 45.500,59.000 45.612,59.000 45.750 C 59.000 45.887,59.112 46.000,59.250 46.000 C 59.387 46.000,59.500 46.112,59.500 46.250 C 59.500 46.387,59.612 46.500,59.750 46.500 C 59.887 46.500,60.000 46.612,60.000 46.750 C 60.000 46.887,60.080 47.000,60.179 47.000 C 60.409 47.000,60.833 47.424,60.833 47.655 C 60.833 47.753,60.946 47.833,61.083 47.833 C 61.221 47.833,61.333 47.946,61.333 48.083 C 61.333 48.221,61.446 48.333,61.583 48.333 C 61.721 48.333,61.833 48.446,61.833 48.583 C 61.833 48.721,61.946 48.833,62.083 48.833 C 62.221 48.833,62.333 48.950,62.333 49.093 C 62.333 49.292,62.481 49.341,62.958 49.302 L 63.583 49.250 63.626 40.045 L 63.669 30.840 75.863 30.795 C 85.437 30.760,88.071 30.705,88.125 30.542 C 88.165 30.422,88.473 30.333,88.847 30.333 C 89.316 30.333,89.500 30.263,89.500 30.083 C 89.500 29.917,89.667 29.833,90.000 29.833 C 90.333 29.833,90.500 29.750,90.500 29.583 C 90.500 29.417,90.667 29.333,91.000 29.333 C 91.333 29.333,91.500 29.250,91.500 29.083 C 91.500 28.928,91.657 28.833,91.917 28.833 C 92.146 28.833,92.333 28.758,92.333 28.667 C 92.333 28.575,92.446 28.500,92.583 28.500 C 92.721 28.500,92.833 28.387,92.833 28.250 C 92.833 28.113,92.946 28.000,93.083 28.000 C 93.221 28.000,93.333 27.887,93.333 27.750 C 93.333 27.592,93.493 27.500,93.768 27.500 C 94.086 27.500,94.177 27.433,94.106 27.250 C 94.041 27.080,94.115 27.000,94.339 27.000 C 94.577 27.000,94.667 26.887,94.667 26.583 C 94.667 26.324,94.761 26.167,94.917 26.167 C 95.054 26.167,95.167 26.054,95.167 25.917 C 95.167 25.779,95.279 25.667,95.417 25.667 C 95.554 25.667,95.667 25.554,95.667 25.417 C 95.667 25.279,95.742 25.167,95.833 25.167 C 95.925 25.167,96.000 25.062,96.000 24.934 C 96.000 24.807,96.112 24.659,96.250 24.606 C 96.388 24.554,96.500 24.358,96.500 24.172 C 96.500 23.982,96.610 23.833,96.750 23.833 C 96.917 23.833,97.000 23.667,97.000 23.333 C 97.000 23.000,97.083 22.833,97.250 22.833 C 97.431 22.833,97.500 22.648,97.500 22.167 C 97.500 21.800,97.575 21.500,97.667 21.500 C 97.762 21.500,97.833 21.000,97.833 20.333 C 97.833 19.407,97.885 19.167,98.083 19.167 C 98.289 19.167,98.333 18.870,98.333 17.495 C 98.333 16.162,98.283 15.803,98.083 15.727 C 97.900 15.657,97.833 15.368,97.833 14.647 C 97.833 14.105,97.762 13.532,97.676 13.373 C 97.589 13.214,97.473 12.802,97.418 12.458 C 97.363 12.115,97.247 11.833,97.159 11.833 C 97.072 11.833,97.000 11.721,97.000 11.583 C 97.000 11.446,96.888 11.333,96.750 11.333 C 96.583 11.333,96.500 11.167,96.500 10.833 C 96.500 10.500,96.417 10.333,96.250 10.333 C 96.106 10.333,96.000 10.183,96.000 9.977 C 96.000 9.782,95.813 9.448,95.583 9.235 C 95.354 9.023,95.167 8.771,95.167 8.675 C 95.167 8.579,95.054 8.500,94.917 8.500 C 94.779 8.500,94.667 8.425,94.667 8.333 C 94.667 8.242,94.554 8.167,94.417 8.167 C 94.279 8.167,94.167 8.054,94.167 7.917 C 94.167 7.779,94.054 7.667,93.917 7.667 C 93.779 7.667,93.667 7.554,93.667 7.417 C 93.667 7.279,93.592 7.167,93.500 7.167 C 93.408 7.167,93.333 7.054,93.333 6.917 C 93.333 6.779,93.221 6.667,93.083 6.667 C 92.946 6.667,92.833 6.593,92.833 6.503 C 92.833 6.413,92.630 6.289,92.382 6.227 C 92.134 6.164,91.756 5.938,91.542 5.723 C 91.327 5.509,91.005 5.333,90.826 5.333 C 90.647 5.333,90.500 5.221,90.500 5.083 C 90.500 4.904,90.317 4.833,89.851 4.833 C 89.428 4.833,89.169 4.746,89.106 4.583 C 89.039 4.407,88.765 4.333,88.182 4.333 C 87.726 4.333,87.307 4.258,87.250 4.167 C 87.182 4.057,80.970 4.000,69.157 4.000 L 51.167 4.000 51.167 21.083 M100.167 21.083 C 100.167 36.157,100.196 38.167,100.417 38.167 C 100.554 38.167,100.667 38.279,100.667 38.417 C 100.667 38.554,100.779 38.667,100.917 38.667 C 101.054 38.667,101.167 38.742,101.167 38.833 C 101.167 38.925,101.279 39.000,101.417 39.000 C 101.554 39.000,101.667 39.112,101.667 39.250 C 101.667 39.387,101.779 39.500,101.917 39.500 C 102.054 39.500,102.167 39.612,102.167 39.750 C 102.167 39.887,102.242 40.000,102.333 40.000 C 102.425 40.000,102.500 40.112,102.500 40.250 C 102.500 40.387,102.579 40.500,102.675 40.500 C 102.771 40.500,103.023 40.688,103.235 40.917 C 103.448 41.146,103.707 41.333,103.811 41.333 C 103.915 41.333,104.000 41.446,104.000 41.583 C 104.000 41.721,104.075 41.833,104.167 41.833 C 104.258 41.833,104.333 41.946,104.333 42.083 C 104.333 42.221,104.446 42.333,104.583 42.333 C 104.721 42.333,104.833 42.446,104.833 42.583 C 104.833 42.721,104.946 42.833,105.083 42.833 C 105.221 42.833,105.333 42.908,105.333 43.000 C 105.333 43.092,105.446 43.167,105.583 43.167 C 105.721 43.167,105.833 43.279,105.833 43.417 C 105.833 43.554,105.946 43.667,106.083 43.667 C 106.221 43.667,106.333 43.779,106.333 43.917 C 106.333 44.054,106.408 44.167,106.500 44.167 C 106.592 44.167,106.667 44.279,106.667 44.417 C 106.667 44.554,106.745 44.667,106.841 44.667 C 106.937 44.667,107.190 44.854,107.402 45.083 C 107.614 45.313,107.873 45.500,107.977 45.500 C 108.082 45.500,108.167 45.612,108.167 45.750 C 108.167 45.887,108.242 46.000,108.333 46.000 C 108.425 46.000,108.500 46.112,108.500 46.250 C 108.500 46.387,108.612 46.500,108.750 46.500 C 108.888 46.500,109.000 46.612,109.000 46.750 C 109.000 46.887,109.112 47.000,109.250 47.000 C 109.388 47.000,109.500 47.075,109.500 47.167 C 109.500 47.258,109.612 47.333,109.750 47.333 C 109.888 47.333,110.000 47.446,110.000 47.583 C 110.000 47.721,110.112 47.833,110.250 47.833 C 110.388 47.833,110.500 47.946,110.500 48.083 C 110.500 48.221,110.575 48.333,110.667 48.333 C 110.758 48.333,110.833 48.446,110.833 48.583 C 110.833 48.721,110.946 48.833,111.083 48.833 C 111.221 48.833,111.333 48.946,111.333 49.083 C 111.333 49.221,111.446 49.333,111.583 49.333 C 111.721 49.333,111.833 49.408,111.833 49.500 C 111.833 49.592,112.021 49.667,112.250 49.667 L 112.667 49.667 112.667 40.250 L 112.667 30.833 124.813 30.833 C 135.406 30.833,136.986 30.801,137.167 30.583 C 137.286 30.440,137.649 30.333,138.020 30.333 C 138.484 30.333,138.667 30.263,138.667 30.083 C 138.667 29.908,138.843 29.833,139.255 29.833 C 139.625 29.833,139.880 29.740,139.940 29.583 C 139.992 29.446,140.140 29.333,140.268 29.333 C 140.396 29.333,140.500 29.221,140.500 29.083 C 140.500 28.926,140.659 28.833,140.929 28.833 C 141.368 28.833,141.833 28.497,141.833 28.179 C 141.833 28.080,142.058 28.000,142.333 28.000 C 142.667 28.000,142.833 27.917,142.833 27.750 C 142.833 27.613,142.946 27.500,143.083 27.500 C 143.221 27.500,143.333 27.422,143.333 27.327 C 143.333 27.231,143.633 26.859,144.000 26.500 C 144.367 26.141,144.667 25.702,144.667 25.524 C 144.667 25.347,144.765 25.165,144.885 25.118 C 145.006 25.072,145.234 24.445,145.392 23.726 C 145.550 23.006,145.859 21.592,146.079 20.583 C 146.298 19.575,146.675 17.887,146.917 16.833 C 147.246 15.399,147.311 14.844,147.178 14.627 C 147.080 14.468,147.000 14.074,147.000 13.752 C 147.000 13.343,146.925 13.167,146.750 13.167 C 146.569 13.167,146.500 12.981,146.500 12.500 C 146.500 12.019,146.431 11.833,146.250 11.833 C 146.083 11.833,146.000 11.667,146.000 11.333 C 146.000 11.058,145.925 10.833,145.833 10.833 C 145.742 10.833,145.667 10.681,145.667 10.495 C 145.667 10.309,145.554 10.113,145.417 10.060 C 145.279 10.008,145.167 9.860,145.167 9.732 C 145.167 9.604,145.054 9.500,144.917 9.500 C 144.779 9.500,144.667 9.387,144.667 9.250 C 144.667 9.112,144.554 9.000,144.417 9.000 C 144.261 9.000,144.167 8.843,144.167 8.583 C 144.167 8.324,144.072 8.167,143.917 8.167 C 143.779 8.167,143.667 8.092,143.667 8.000 C 143.667 7.711,143.014 7.167,142.667 7.167 C 142.481 7.167,142.333 7.056,142.333 6.917 C 142.333 6.779,142.250 6.667,142.149 6.667 C 142.048 6.667,141.817 6.479,141.637 6.250 C 141.448 6.010,141.138 5.833,140.905 5.833 C 140.656 5.833,140.500 5.737,140.500 5.583 C 140.500 5.417,140.333 5.333,140.000 5.333 C 139.667 5.333,139.500 5.250,139.500 5.083 C 139.500 4.903,139.315 4.833,138.833 4.833 C 138.352 4.833,138.167 4.764,138.167 4.583 C 138.167 4.399,137.973 4.333,137.427 4.333 C 137.019 4.333,136.640 4.258,136.583 4.167 C 136.516 4.057,130.248 4.000,118.323 4.000 L 100.167 4.000 100.167 21.083 M346.040 10.208 L 346.083 16.417 354.875 16.460 L 363.667 16.503 363.667 33.085 L 363.667 49.667 364.083 49.667 C 364.313 49.667,364.500 49.592,364.500 49.500 C 364.500 49.408,364.613 49.333,364.750 49.333 C 364.887 49.333,365.000 49.221,365.000 49.083 C 365.000 48.946,365.113 48.833,365.250 48.833 C 365.387 48.833,365.500 48.721,365.500 48.583 C 365.500 48.446,365.613 48.333,365.750 48.333 C 365.887 48.333,366.000 48.221,366.000 48.083 C 366.000 47.946,366.113 47.833,366.250 47.833 C 366.387 47.833,366.500 47.753,366.500 47.655 C 366.500 47.424,366.924 47.000,367.155 47.000 C 367.253 47.000,367.333 46.887,367.333 46.750 C 367.333 46.612,367.446 46.500,367.583 46.500 C 367.721 46.500,367.833 46.387,367.833 46.250 C 367.833 46.112,367.946 46.000,368.083 46.000 C 368.221 46.000,368.333 45.920,368.333 45.821 C 368.333 45.591,368.757 45.167,368.988 45.167 C 369.086 45.167,369.167 45.054,369.167 44.917 C 369.167 44.779,369.279 44.667,369.417 44.667 C 369.554 44.667,369.667 44.554,369.667 44.417 C 369.667 44.279,369.779 44.167,369.917 44.167 C 370.054 44.167,370.167 44.054,370.167 43.917 C 370.167 43.779,370.279 43.667,370.417 43.667 C 370.554 43.667,370.667 43.586,370.667 43.488 C 370.667 43.257,371.091 42.833,371.321 42.833 C 371.420 42.833,371.500 42.721,371.500 42.583 C 371.500 42.446,371.613 42.333,371.750 42.333 C 371.887 42.333,372.000 42.221,372.000 42.083 C 372.000 41.946,372.113 41.833,372.250 41.833 C 372.387 41.833,372.500 41.753,372.500 41.655 C 372.500 41.424,372.924 41.000,373.155 41.000 C 373.253 41.000,373.333 40.887,373.333 40.750 C 373.333 40.612,373.446 40.500,373.583 40.500 C 373.721 40.500,373.833 40.387,373.833 40.250 C 373.833 40.112,373.946 40.000,374.083 40.000 C 374.221 40.000,374.333 39.887,374.333 39.750 C 374.333 39.612,374.446 39.500,374.583 39.500 C 374.721 39.500,374.833 39.420,374.833 39.321 C 374.833 39.091,375.257 38.667,375.488 38.667 C 375.586 38.667,375.667 38.554,375.667 38.417 C 375.667 38.279,375.779 38.167,375.917 38.167 C 376.136 38.167,376.167 36.852,376.167 27.333 L 376.167 16.500 381.917 16.500 C 386.917 16.500,387.667 16.467,387.667 16.250 C 387.667 16.112,387.779 16.000,387.917 16.000 C 388.054 16.000,388.167 15.887,388.167 15.750 C 388.167 15.612,388.279 15.500,388.417 15.500 C 388.554 15.500,388.667 15.387,388.667 15.250 C 388.667 15.112,388.779 15.000,388.917 15.000 C 389.054 15.000,389.167 14.920,389.167 14.821 C 389.167 14.591,389.591 14.167,389.821 14.167 C 389.920 14.167,390.000 14.054,390.000 13.917 C 390.000 13.779,390.113 13.667,390.250 13.667 C 390.387 13.667,390.500 13.554,390.500 13.417 C 390.500 13.279,390.613 13.167,390.750 13.167 C 390.887 13.167,391.000 13.054,391.000 12.917 C 391.000 12.779,391.080 12.667,391.179 12.667 C 391.409 12.667,391.833 12.243,391.833 12.012 C 391.833 11.914,391.946 11.833,392.083 11.833 C 392.221 11.833,392.333 11.721,392.333 11.583 C 392.333 11.446,392.446 11.333,392.583 11.333 C 392.721 11.333,392.833 11.221,392.833 11.083 C 392.833 10.946,392.946 10.833,393.083 10.833 C 393.221 10.833,393.333 10.753,393.333 10.655 C 393.333 10.424,393.757 10.000,393.988 10.000 C 394.086 10.000,394.167 9.887,394.167 9.750 C 394.167 9.612,394.279 9.500,394.417 9.500 C 394.554 9.500,394.667 9.387,394.667 9.250 C 394.667 9.112,394.779 9.000,394.917 9.000 C 395.054 9.000,395.167 8.887,395.167 8.750 C 395.167 8.612,395.247 8.500,395.345 8.500 C 395.576 8.500,396.000 8.076,396.000 7.845 C 396.000 7.747,396.113 7.667,396.250 7.667 C 396.387 7.667,396.500 7.554,396.500 7.417 C 396.500 7.279,396.613 7.167,396.750 7.167 C 396.887 7.167,397.000 7.054,397.000 6.917 C 397.000 6.779,397.113 6.667,397.250 6.667 C 397.387 6.667,397.500 6.586,397.500 6.488 C 397.500 6.257,397.924 5.833,398.155 5.833 C 398.253 5.833,398.333 5.721,398.333 5.583 C 398.333 5.446,398.446 5.333,398.583 5.333 C 398.764 5.333,398.833 5.148,398.833 4.667 L 398.833 4.000 372.415 4.000 L 345.996 4.000 346.040 10.208 M168.500 7.986 C 166.936 8.103,165.398 8.382,164.750 8.666 C 164.567 8.747,164.229 8.864,164.000 8.926 C 163.510 9.060,160.788 10.331,160.667 10.482 C 160.621 10.539,160.303 10.773,159.959 11.001 C 159.616 11.230,159.335 11.473,159.334 11.542 C 159.334 11.610,159.255 11.667,159.158 11.667 C 158.949 11.667,156.000 14.585,156.000 14.792 C 156.000 14.872,155.869 15.083,155.708 15.260 C 155.128 15.903,154.529 16.960,153.961 18.341 C 152.810 21.140,152.736 21.667,153.494 21.667 C 153.766 21.667,154.235 21.770,154.536 21.897 C 155.249 22.196,156.097 22.442,156.875 22.575 C 157.219 22.634,157.500 22.753,157.500 22.841 C 157.500 22.928,157.804 23.000,158.176 23.000 C 158.888 23.000,160.244 23.265,160.667 23.487 C 160.804 23.559,161.817 23.712,162.917 23.826 C 164.900 24.034,165.960 24.338,166.217 24.775 C 166.315 24.941,166.435 24.957,166.663 24.835 C 166.835 24.743,167.094 24.713,167.238 24.768 C 167.442 24.847,167.500 24.753,167.500 24.346 C 167.500 23.680,167.581 23.659,169.579 23.800 C 171.057 23.904,171.261 23.957,171.421 24.279 C 171.580 24.598,171.621 24.609,171.769 24.374 C 172.066 23.904,176.378 23.611,176.800 24.033 C 176.929 24.163,177.012 24.943,177.033 26.242 C 177.056 27.642,177.084 27.884,177.124 27.042 C 177.180 25.869,177.194 25.833,177.611 25.833 C 177.967 25.833,178.006 25.792,177.841 25.593 C 177.222 24.847,177.638 24.590,179.667 24.465 C 180.721 24.400,181.958 24.273,182.417 24.182 C 182.875 24.091,183.925 23.929,184.750 23.821 C 185.575 23.714,186.737 23.513,187.333 23.376 C 187.929 23.238,188.792 23.089,189.250 23.045 C 189.708 23.000,190.121 22.907,190.167 22.837 C 190.213 22.767,190.737 22.606,191.333 22.479 C 192.743 22.178,192.763 21.351,191.434 18.262 C 191.313 17.980,191.136 17.563,191.041 17.333 C 189.841 14.426,184.485 9.787,181.333 8.926 C 181.104 8.864,180.767 8.749,180.583 8.671 C 179.099 8.044,172.633 7.677,168.500 7.986 M29.917 16.667 C 29.973 16.758,30.390 16.833,30.843 16.833 C 31.464 16.833,31.667 16.895,31.667 17.083 C 31.667 17.221,31.771 17.333,31.899 17.333 C 32.027 17.333,32.174 17.446,32.227 17.583 C 32.280 17.721,32.513 17.833,32.745 17.833 C 32.977 17.833,33.167 17.914,33.167 18.012 C 33.167 18.243,33.591 18.667,33.821 18.667 C 33.920 18.667,34.000 18.779,34.000 18.917 C 34.000 19.054,34.112 19.167,34.250 19.167 C 34.387 19.167,34.500 19.279,34.500 19.417 C 34.500 19.554,34.612 19.667,34.750 19.667 C 34.887 19.667,35.000 19.779,35.000 19.917 C 35.000 20.054,35.112 20.167,35.250 20.167 C 35.406 20.167,35.500 20.324,35.500 20.583 C 35.500 20.813,35.575 21.000,35.667 21.000 C 35.758 21.000,35.833 21.225,35.833 21.500 C 35.833 21.833,35.917 22.000,36.083 22.000 C 36.294 22.000,36.333 22.387,36.333 24.482 C 36.333 26.535,36.290 26.981,36.083 27.060 C 35.946 27.113,35.833 27.342,35.833 27.568 C 35.833 27.795,35.758 28.027,35.667 28.083 C 35.575 28.140,35.500 28.324,35.500 28.492 C 35.500 28.660,35.387 28.841,35.250 28.894 C 35.112 28.946,35.000 29.179,35.000 29.411 C 35.000 29.675,34.906 29.833,34.750 29.833 C 34.612 29.833,34.500 29.946,34.500 30.083 C 34.500 30.221,34.387 30.333,34.250 30.333 C 34.112 30.333,34.000 30.446,34.000 30.583 C 34.000 30.721,33.887 30.833,33.750 30.833 C 33.612 30.833,33.500 30.908,33.500 31.000 C 33.500 31.092,33.313 31.167,33.083 31.167 C 32.839 31.167,32.667 31.262,32.667 31.399 C 32.667 31.526,32.479 31.678,32.250 31.735 C 32.021 31.793,31.833 31.913,31.833 32.003 C 31.833 32.093,31.608 32.167,31.333 32.167 C 31.000 32.167,30.833 32.250,30.833 32.417 C 30.833 32.618,30.575 32.667,29.510 32.667 C 28.782 32.667,28.140 32.742,28.083 32.833 C 28.022 32.933,26.946 33.000,25.417 33.000 C 23.887 33.000,22.811 32.933,22.750 32.833 C 22.693 32.742,22.089 32.667,21.407 32.667 C 20.416 32.667,20.167 32.616,20.167 32.417 C 20.167 32.252,20.002 32.167,19.684 32.167 C 19.410 32.167,19.161 32.059,19.106 31.917 C 19.054 31.779,18.866 31.667,18.690 31.667 C 18.513 31.667,18.326 31.554,18.273 31.417 C 18.220 31.279,17.987 31.167,17.755 31.167 C 17.523 31.167,17.333 31.092,17.333 31.000 C 17.333 30.908,17.221 30.833,17.083 30.833 C 16.946 30.833,16.833 30.721,16.833 30.583 C 16.833 30.446,16.758 30.333,16.667 30.333 C 16.575 30.333,16.500 30.221,16.500 30.083 C 16.500 29.946,16.387 29.833,16.250 29.833 C 16.111 29.833,16.000 29.685,16.000 29.500 C 16.000 29.153,15.456 28.500,15.167 28.500 C 15.075 28.500,15.000 28.198,15.000 27.828 C 15.000 27.385,14.915 27.124,14.750 27.060 C 14.564 26.989,14.500 26.692,14.500 25.899 C 14.500 25.165,14.435 24.829,14.292 24.820 C 14.125 24.810,14.125 24.790,14.292 24.723 C 14.434 24.666,14.500 24.219,14.500 23.319 C 14.500 22.258,14.549 22.000,14.750 22.000 C 14.917 22.000,15.000 21.833,15.000 21.500 C 15.000 21.167,15.083 21.000,15.250 21.000 C 15.406 21.000,15.500 20.843,15.500 20.583 C 15.500 20.324,15.594 20.167,15.750 20.167 C 15.887 20.167,16.000 20.088,16.000 19.992 C 16.000 19.896,16.188 19.644,16.417 19.431 C 16.646 19.219,16.833 18.960,16.833 18.856 C 16.833 18.752,16.946 18.667,17.083 18.667 C 17.221 18.667,17.333 18.592,17.333 18.500 C 17.333 18.408,17.446 18.333,17.583 18.333 C 17.721 18.333,17.833 18.221,17.833 18.083 C 17.833 17.943,17.982 17.833,18.172 17.833 C 18.358 17.833,18.554 17.721,18.606 17.583 C 18.659 17.446,18.807 17.333,18.934 17.333 C 19.062 17.333,19.167 17.221,19.167 17.083 C 19.167 16.891,19.380 16.833,20.083 16.833 C 20.587 16.833,21.000 16.758,21.000 16.667 C 21.000 16.560,22.580 16.500,25.407 16.500 C 28.165 16.500,29.852 16.562,29.917 16.667 M85.595 16.738 C 85.866 17.009,85.920 17.833,85.667 17.833 C 85.575 17.833,85.500 17.946,85.500 18.083 C 85.500 18.303,84.176 18.333,74.583 18.333 L 63.667 18.333 63.667 17.417 L 63.667 16.500 74.512 16.500 C 83.689 16.500,85.394 16.537,85.595 16.738 M134.500 16.667 C 134.500 16.758,134.612 16.833,134.750 16.833 C 134.917 16.833,135.000 17.000,135.000 17.333 C 135.000 17.667,134.917 17.833,134.750 17.833 C 134.612 17.833,134.500 17.946,134.500 18.083 C 134.500 18.303,133.176 18.333,123.583 18.333 L 112.667 18.333 112.667 17.417 L 112.667 16.500 123.583 16.500 C 130.750 16.500,134.500 16.557,134.500 16.667 M165.519 26.188 C 165.509 26.337,165.387 26.553,165.250 26.667 C 165.112 26.781,165.000 27.034,165.001 27.229 C 165.001 27.524,165.058 27.489,165.343 27.023 C 165.530 26.715,165.651 26.340,165.611 26.190 C 165.545 25.940,165.537 25.940,165.519 26.188 M152.556 27.449 C 152.988 30.122,153.198 30.788,154.418 33.358 C 155.210 35.028,156.516 36.751,157.988 38.071 C 158.302 38.353,158.679 38.696,158.824 38.833 C 159.417 39.393,160.476 40.167,160.649 40.167 C 160.750 40.167,160.833 40.233,160.833 40.314 C 160.833 40.395,160.965 40.507,161.125 40.562 C 161.285 40.618,161.722 40.839,162.096 41.053 C 165.618 43.070,175.641 43.562,180.833 41.973 C 182.483 41.468,184.043 40.766,184.358 40.387 C 184.458 40.266,184.611 40.167,184.697 40.167 C 185.182 40.167,188.586 37.052,189.249 36.001 C 189.454 35.677,189.744 35.310,189.894 35.185 C 190.044 35.061,190.167 34.888,190.167 34.802 C 190.167 34.715,190.345 34.406,190.563 34.114 C 191.314 33.107,192.232 30.606,192.570 28.647 C 192.759 27.550,192.677 27.515,190.952 27.938 C 188.052 28.650,187.082 28.834,186.222 28.834 C 185.749 28.834,185.334 28.913,185.302 29.011 C 185.269 29.109,184.650 29.263,183.925 29.353 C 183.201 29.443,182.549 29.553,182.478 29.597 C 182.406 29.641,182.082 29.566,181.757 29.430 C 180.978 29.105,180.959 29.413,181.708 30.208 C 182.621 31.176,183.000 31.625,183.000 31.739 C 183.000 31.799,183.302 32.256,183.670 32.755 C 184.527 33.915,184.631 34.424,184.182 35.261 C 183.990 35.619,183.833 36.046,183.833 36.209 C 183.833 36.373,183.662 36.787,183.453 37.129 C 183.244 37.470,182.993 37.900,182.894 38.083 C 182.466 38.878,181.864 38.557,181.202 37.181 C 180.956 36.669,180.715 36.212,180.666 36.167 C 180.617 36.121,180.150 35.446,179.627 34.667 C 179.104 33.887,178.434 32.912,178.139 32.500 C 177.844 32.087,177.364 31.400,177.072 30.972 C 176.551 30.209,176.531 30.198,176.085 30.430 C 175.345 30.814,172.891 30.754,172.636 30.346 C 172.441 30.033,172.427 30.033,172.041 30.337 C 171.402 30.840,170.913 30.554,170.160 29.239 C 169.650 28.348,169.315 28.211,169.096 28.803 C 169.038 28.957,168.868 29.308,168.717 29.583 C 168.358 30.234,167.982 31.218,166.966 34.167 C 166.097 36.687,165.746 37.500,165.530 37.500 C 165.374 37.500,164.167 36.282,164.167 36.126 C 164.167 36.065,163.998 35.831,163.792 35.607 C 162.185 33.857,162.177 33.405,163.704 30.417 C 163.938 29.958,164.181 29.340,164.245 29.042 C 164.308 28.744,164.420 28.500,164.494 28.500 C 164.692 28.500,164.827 27.849,164.651 27.740 C 164.568 27.689,164.500 27.785,164.500 27.953 C 164.500 28.825,163.216 29.560,162.447 29.129 C 162.247 29.017,161.558 28.880,160.917 28.824 C 160.275 28.768,159.412 28.640,159.000 28.538 C 158.587 28.436,157.762 28.242,157.167 28.107 C 155.695 27.773,154.154 27.352,153.750 27.174 C 152.706 26.711,152.447 26.771,152.556 27.449 " stroke="none" fill="#fbfbfb" fill-rule="evenodd"></path><path id="path2" d="M167.833 7.817 C 167.421 7.872,169.596 7.918,172.667 7.919 C 175.737 7.920,177.875 7.870,177.417 7.808 C 176.401 7.671,168.877 7.678,167.833 7.817 M165.417 8.246 C 160.030 9.595,155.173 14.069,153.279 19.427 C 152.594 21.364,152.614 21.711,153.417 21.857 C 153.783 21.924,154.526 22.133,155.068 22.323 C 155.609 22.512,156.186 22.667,156.349 22.667 C 156.512 22.667,156.856 22.755,157.114 22.863 C 157.642 23.083,159.866 23.577,161.500 23.837 C 162.096 23.932,162.903 24.082,163.294 24.171 C 163.685 24.260,164.225 24.333,164.495 24.333 C 165.365 24.333,165.876 24.669,165.749 25.158 C 165.688 25.392,165.642 25.792,165.646 26.048 C 165.651 26.303,165.507 26.753,165.328 27.048 C 165.051 27.502,165.001 27.529,165.001 27.229 C 165.000 27.034,165.112 26.781,165.250 26.667 C 165.387 26.553,165.498 26.337,165.496 26.188 C 165.491 25.789,164.957 26.528,164.343 27.785 C 163.713 29.071,163.430 29.245,162.494 28.915 C 162.108 28.778,161.557 28.667,161.271 28.668 C 160.557 28.670,156.453 27.738,154.333 27.093 C 152.207 26.445,152.163 26.485,152.585 28.713 C 153.599 34.079,156.871 38.388,162.149 41.312 C 166.647 43.804,178.841 43.723,183.417 41.172 C 184.410 40.618,185.239 40.113,185.333 40.005 C 185.379 39.952,185.639 39.767,185.910 39.594 C 189.187 37.505,192.403 32.253,192.780 28.375 C 192.901 27.137,193.011 27.171,190.715 27.732 C 187.533 28.508,186.742 28.668,186.075 28.667 C 185.704 28.667,185.325 28.741,185.234 28.832 C 185.016 29.050,182.432 29.394,181.940 29.271 C 181.489 29.158,178.000 25.449,178.000 25.083 C 178.000 24.945,178.131 24.830,178.292 24.826 C 178.723 24.815,184.066 24.201,185.417 24.007 C 186.861 23.799,189.498 23.238,190.500 22.926 C 190.912 22.798,191.529 22.646,191.870 22.590 C 194.164 22.209,190.951 15.397,186.850 11.943 C 184.237 9.743,179.671 7.620,178.463 8.044 C 178.346 8.085,178.700 8.208,179.250 8.318 C 179.800 8.428,180.400 8.584,180.583 8.665 C 180.767 8.746,181.104 8.864,181.333 8.926 C 184.485 9.787,189.841 14.426,191.041 17.333 C 191.136 17.563,191.313 17.980,191.434 18.262 C 192.763 21.351,192.743 22.178,191.333 22.479 C 190.737 22.606,190.213 22.767,190.167 22.837 C 190.121 22.907,189.708 23.000,189.250 23.045 C 188.792 23.089,187.929 23.238,187.333 23.376 C 186.737 23.513,185.575 23.714,184.750 23.821 C 183.925 23.929,182.875 24.091,182.417 24.182 C 181.958 24.273,180.721 24.400,179.667 24.465 C 177.638 24.590,177.222 24.847,177.841 25.593 C 178.006 25.792,177.967 25.833,177.611 25.833 C 177.194 25.833,177.180 25.869,177.124 27.042 C 177.084 27.884,177.056 27.642,177.033 26.242 C 177.012 24.943,176.929 24.163,176.800 24.033 C 176.378 23.611,172.066 23.904,171.769 24.374 C 171.621 24.609,171.580 24.598,171.421 24.279 C 171.261 23.957,171.057 23.904,169.579 23.800 C 167.581 23.659,167.500 23.680,167.500 24.346 C 167.500 24.753,167.442 24.847,167.238 24.768 C 167.094 24.713,166.835 24.743,166.663 24.835 C 166.435 24.957,166.315 24.941,166.217 24.775 C 165.960 24.338,164.900 24.034,162.917 23.826 C 161.817 23.712,160.804 23.559,160.667 23.487 C 160.244 23.265,158.888 23.000,158.176 23.000 C 157.804 23.000,157.500 22.928,157.500 22.841 C 157.500 22.753,157.219 22.634,156.875 22.575 C 156.097 22.442,155.249 22.196,154.536 21.897 C 154.235 21.770,153.766 21.667,153.494 21.667 C 152.736 21.667,152.810 21.140,153.961 18.341 C 154.529 16.960,155.128 15.903,155.708 15.260 C 155.869 15.083,156.000 14.872,156.000 14.792 C 156.000 14.585,158.949 11.667,159.158 11.667 C 159.255 11.667,159.334 11.610,159.334 11.542 C 159.335 11.473,159.616 11.230,159.959 11.001 C 160.303 10.773,160.621 10.539,160.667 10.482 C 160.788 10.331,163.510 9.060,164.000 8.926 C 164.229 8.864,164.567 8.746,164.750 8.665 C 164.933 8.584,165.515 8.433,166.042 8.330 C 166.569 8.227,167.000 8.111,167.000 8.072 C 167.000 7.949,166.287 8.028,165.417 8.246 M146.884 16.938 C 145.528 23.023,145.387 23.754,145.652 23.326 C 145.740 23.185,145.959 22.360,146.139 21.493 C 146.319 20.626,146.665 18.987,146.907 17.850 C 147.150 16.713,147.326 15.673,147.299 15.538 C 147.272 15.403,147.085 16.033,146.884 16.938 M199.115 20.167 C 199.162 20.946,199.268 21.950,199.350 22.398 C 199.433 22.846,199.500 24.279,199.500 25.583 C 199.500 26.887,199.433 28.321,199.350 28.769 C 199.268 29.217,199.161 30.221,199.112 31.000 C 199.064 31.779,199.058 32.229,199.099 32.000 C 199.141 31.771,199.298 30.946,199.449 30.167 C 199.823 28.231,199.819 22.589,199.442 20.917 C 199.297 20.275,199.145 19.525,199.104 19.250 C 199.063 18.975,199.068 19.387,199.115 20.167 M171.044 24.208 C 171.209 24.334,171.337 24.714,171.367 25.165 C 171.435 26.197,172.000 26.376,172.000 25.366 C 172.000 24.541,172.156 24.419,173.514 24.187 C 174.876 23.955,175.844 23.949,176.425 24.170 L 176.873 24.340 176.805 26.509 C 176.746 28.394,176.771 28.671,176.994 28.629 C 177.188 28.592,177.270 28.279,177.333 27.345 C 177.379 26.665,177.496 26.083,177.594 26.051 C 177.925 25.942,181.642 30.221,183.124 32.417 C 183.372 32.783,183.745 33.295,183.954 33.554 C 184.392 34.098,184.423 34.408,184.101 35.026 C 183.974 35.269,183.777 35.756,183.664 36.109 C 183.551 36.461,183.360 36.863,183.241 37.000 C 183.121 37.138,182.945 37.457,182.849 37.709 C 182.562 38.464,182.103 38.295,181.497 37.208 C 181.203 36.681,180.389 35.399,179.689 34.360 C 178.989 33.320,178.342 32.342,178.250 32.187 C 178.158 32.031,177.802 31.561,177.458 31.143 C 176.959 30.535,176.833 30.244,176.833 29.691 C 176.833 28.945,176.593 28.767,176.408 29.375 C 176.154 30.207,175.879 30.333,174.310 30.333 L 172.838 30.333 172.576 29.708 C 172.432 29.365,172.287 28.642,172.252 28.103 C 172.218 27.564,172.109 27.043,172.011 26.945 C 171.806 26.740,171.784 26.918,171.764 28.917 C 171.748 30.458,171.392 30.737,170.753 29.706 C 170.568 29.407,170.098 28.674,169.708 28.077 C 169.319 27.480,169.000 26.928,169.000 26.850 C 169.000 26.772,168.887 26.614,168.750 26.500 C 168.612 26.386,168.500 26.188,168.500 26.060 C 168.500 25.932,168.307 25.521,168.071 25.148 C 167.429 24.130,167.568 24.000,169.296 24.000 C 170.218 24.000,170.872 24.078,171.044 24.208 M167.815 25.750 C 168.034 26.162,168.278 26.500,168.356 26.500 C 168.435 26.500,168.500 26.641,168.500 26.813 C 168.500 26.985,168.612 27.219,168.750 27.333 C 169.162 27.675,169.037 28.442,168.333 29.897 C 167.967 30.655,167.667 31.385,167.667 31.521 C 167.667 31.656,167.597 31.838,167.511 31.925 C 167.425 32.012,167.011 33.133,166.590 34.417 C 165.577 37.506,165.362 37.662,164.315 36.062 C 164.188 35.867,163.792 35.286,163.436 34.772 C 162.733 33.757,162.675 32.915,163.233 31.861 C 163.363 31.617,163.671 30.967,163.918 30.417 C 164.797 28.459,164.910 28.236,165.635 27.000 C 166.764 25.077,166.821 25.000,167.129 25.000 C 167.301 25.000,167.578 25.304,167.815 25.750 M153.750 27.174 C 154.154 27.352,155.695 27.773,157.167 28.107 C 157.762 28.242,158.587 28.436,159.000 28.538 C 159.412 28.640,160.275 28.768,160.917 28.824 C 161.558 28.880,162.247 29.017,162.447 29.129 C 163.216 29.560,164.500 28.825,164.500 27.953 C 164.500 27.785,164.568 27.689,164.651 27.740 C 164.827 27.849,164.692 28.500,164.494 28.500 C 164.420 28.500,164.308 28.744,164.245 29.042 C 164.181 29.340,163.938 29.958,163.704 30.417 C 162.177 33.405,162.185 33.857,163.792 35.607 C 163.998 35.831,164.167 36.065,164.167 36.126 C 164.167 36.282,165.374 37.500,165.530 37.500 C 165.746 37.500,166.097 36.687,166.966 34.167 C 167.982 31.218,168.358 30.234,168.717 29.583 C 168.868 29.308,169.038 28.957,169.096 28.803 C 169.315 28.211,169.650 28.348,170.160 29.239 C 170.913 30.554,171.402 30.840,172.041 30.337 C 172.427 30.033,172.441 30.033,172.636 30.346 C 172.891 30.754,175.345 30.814,176.085 30.430 C 176.531 30.198,176.551 30.209,177.072 30.972 C 177.364 31.400,177.844 32.087,178.139 32.500 C 178.434 32.912,179.104 33.887,179.627 34.667 C 180.150 35.446,180.617 36.121,180.666 36.167 C 180.715 36.212,180.956 36.669,181.202 37.181 C 181.864 38.557,182.466 38.878,182.894 38.083 C 182.993 37.900,183.244 37.470,183.453 37.129 C 183.662 36.787,183.833 36.373,183.833 36.209 C 183.833 36.046,183.990 35.619,184.182 35.261 C 184.631 34.424,184.527 33.915,183.670 32.755 C 183.302 32.256,183.000 31.799,183.000 31.739 C 183.000 31.625,182.621 31.176,181.708 30.208 C 180.959 29.413,180.978 29.105,181.757 29.430 C 182.082 29.566,182.406 29.641,182.478 29.597 C 182.549 29.553,183.201 29.443,183.925 29.353 C 184.650 29.263,185.269 29.109,185.302 29.011 C 185.334 28.913,185.749 28.834,186.222 28.834 C 187.082 28.834,188.052 28.650,190.952 27.938 C 192.677 27.515,192.759 27.550,192.570 28.647 C 192.232 30.606,191.314 33.107,190.563 34.114 C 190.345 34.406,190.167 34.715,190.167 34.802 C 190.167 34.888,190.044 35.061,189.894 35.185 C 189.744 35.310,189.454 35.677,189.249 36.001 C 188.586 37.052,185.182 40.167,184.697 40.167 C 184.611 40.167,184.458 40.266,184.358 40.387 C 181.915 43.330,166.858 43.780,162.096 41.053 C 161.722 40.839,161.285 40.618,161.125 40.562 C 160.965 40.507,160.833 40.395,160.833 40.314 C 160.833 40.233,160.750 40.167,160.649 40.167 C 160.476 40.167,159.417 39.393,158.824 38.833 C 158.679 38.696,158.302 38.353,157.988 38.071 C 156.516 36.751,155.210 35.028,154.418 33.358 C 153.198 30.788,152.988 30.122,152.556 27.449 C 152.447 26.771,152.706 26.711,153.750 27.174 " stroke="none" fill="#999fa8" fill-rule="evenodd"></path><path id="path3" d="M169.333 7.444 C 161.261 8.233,155.446 12.497,153.017 19.407 C 152.631 20.505,152.355 22.950,152.675 22.442 C 152.833 22.190,153.008 22.150,153.642 22.225 C 154.383 22.312,154.391 22.308,153.833 22.144 C 152.581 21.775,152.533 21.539,153.279 19.427 C 154.927 14.767,158.891 10.660,163.417 8.922 C 166.136 7.878,167.149 7.750,172.667 7.750 C 180.218 7.750,182.765 8.503,186.850 11.943 C 190.764 15.239,194.334 22.615,192.047 22.680 C 191.792 22.687,191.680 22.732,191.799 22.779 C 192.669 23.129,193.245 22.316,192.905 21.220 C 192.767 20.778,192.574 20.154,192.475 19.833 C 192.376 19.512,192.078 18.776,191.814 18.197 C 191.550 17.617,191.333 17.113,191.333 17.076 C 191.333 17.039,190.886 16.346,190.340 15.536 C 188.293 12.501,185.244 10.046,181.583 8.486 C 179.616 7.647,173.004 7.085,169.333 7.444 M147.034 17.250 C 146.694 19.080,145.822 22.916,145.593 23.583 C 145.523 23.787,145.571 23.755,145.718 23.500 C 145.849 23.271,146.051 22.671,146.166 22.167 C 146.281 21.662,146.478 20.918,146.604 20.512 C 146.730 20.106,146.833 19.576,146.833 19.334 C 146.833 19.092,146.950 18.500,147.093 18.019 C 147.236 17.538,147.330 16.906,147.301 16.614 C 147.262 16.211,147.198 16.365,147.034 17.250 M198.875 18.917 C 198.877 19.283,198.911 19.414,198.951 19.206 C 198.991 18.999,198.990 18.699,198.948 18.540 C 198.906 18.380,198.874 18.550,198.875 18.917 M199.134 22.500 C 199.268 25.459,199.268 25.494,199.133 28.583 C 199.035 30.826,199.043 30.955,199.214 29.833 C 199.459 28.223,199.460 22.949,199.215 21.333 C 199.044 20.206,199.036 20.320,199.134 22.500 M155.000 22.583 C 155.229 22.714,155.529 22.822,155.667 22.822 C 155.811 22.822,155.741 22.721,155.500 22.583 C 155.271 22.452,154.971 22.345,154.833 22.345 C 154.689 22.345,154.759 22.446,155.000 22.583 M156.417 22.989 C 156.600 23.063,157.012 23.176,157.333 23.240 L 157.917 23.356 157.439 23.095 C 157.177 22.951,156.764 22.838,156.523 22.844 C 156.133 22.853,156.121 22.870,156.417 22.989 M190.583 23.000 C 190.527 23.092,190.316 23.168,190.115 23.169 C 189.516 23.173,188.300 23.650,188.865 23.659 C 189.112 23.663,189.360 23.592,189.417 23.500 C 189.473 23.408,189.721 23.330,189.968 23.326 C 190.571 23.316,191.587 22.867,191.052 22.847 C 190.851 22.839,190.640 22.908,190.583 23.000 M158.079 23.493 C 158.138 23.589,158.382 23.667,158.621 23.667 C 159.143 23.667,159.083 23.587,158.444 23.433 C 158.135 23.359,158.009 23.380,158.079 23.493 M159.833 23.790 C 160.153 23.829,160.528 23.948,160.666 24.055 C 160.884 24.225,160.887 24.212,160.688 23.958 C 160.536 23.765,160.256 23.676,159.855 23.693 L 159.250 23.720 159.833 23.790 M187.083 23.833 C 187.027 23.925,186.816 24.009,186.615 24.019 C 186.302 24.036,186.294 24.050,186.564 24.119 C 186.736 24.163,187.036 24.120,187.230 24.023 C 187.424 23.926,187.771 23.817,188.000 23.780 C 188.294 23.732,188.235 23.705,187.802 23.689 C 187.463 23.677,187.140 23.742,187.083 23.833 M162.440 24.295 C 162.343 24.453,163.573 24.662,164.619 24.665 C 165.225 24.667,165.624 25.143,165.295 25.472 C 165.191 25.576,165.154 25.710,165.213 25.769 C 165.272 25.828,165.412 25.677,165.523 25.434 C 165.800 24.825,165.558 24.624,164.373 24.477 C 163.847 24.412,163.219 24.308,162.978 24.247 C 162.737 24.185,162.495 24.207,162.440 24.295 M167.833 24.300 C 167.833 24.576,168.038 24.646,168.324 24.467 C 168.523 24.343,169.006 24.336,169.892 24.445 C 170.784 24.555,171.155 24.549,171.115 24.426 C 171.044 24.213,167.833 24.089,167.833 24.300 M173.581 24.316 C 173.491 24.404,173.154 24.500,172.833 24.530 C 172.276 24.581,172.248 24.615,172.199 25.292 C 172.147 26.007,171.494 26.365,171.285 25.792 C 171.197 25.547,171.301 26.919,171.453 28.000 L 171.558 28.750 171.679 27.864 C 171.883 26.363,172.190 26.452,172.303 28.045 C 172.344 28.616,172.488 29.233,172.624 29.417 C 172.862 29.737,172.867 29.734,172.752 29.333 C 172.535 28.575,172.362 27.100,172.347 25.889 L 172.333 24.695 173.589 24.577 C 174.280 24.513,175.257 24.494,175.761 24.536 C 176.374 24.587,176.656 24.552,176.616 24.431 C 176.540 24.201,173.805 24.097,173.581 24.316 M184.333 24.333 C 184.196 24.422,183.708 24.509,183.250 24.527 C 182.479 24.556,182.467 24.563,183.083 24.617 C 183.450 24.649,184.275 24.570,184.917 24.440 C 186.030 24.216,186.049 24.205,185.333 24.189 C 184.921 24.179,184.471 24.244,184.333 24.333 M180.417 24.833 C 180.172 24.939,180.305 24.977,180.917 24.977 C 181.375 24.977,181.900 24.912,182.083 24.833 C 182.328 24.728,182.195 24.690,181.583 24.690 C 181.125 24.690,180.600 24.755,180.417 24.833 M178.118 25.104 C 178.060 25.162,178.452 25.668,178.988 26.229 C 179.524 26.791,180.346 27.657,180.815 28.153 C 181.283 28.650,181.667 28.999,181.667 28.929 C 181.667 28.859,181.369 28.490,181.005 28.109 C 180.640 27.728,179.883 26.915,179.320 26.301 L 178.298 25.185 179.191 25.123 L 180.083 25.062 179.153 25.031 C 178.641 25.014,178.175 25.047,178.118 25.104 M166.348 26.003 C 165.821 26.859,165.689 27.211,166.019 26.881 C 166.248 26.652,166.625 26.018,166.768 25.620 C 166.839 25.422,166.978 25.357,167.187 25.423 C 167.360 25.478,167.500 25.443,167.500 25.345 C 167.500 24.846,166.821 25.234,166.348 26.003 M176.626 26.333 C 176.120 30.186,176.243 29.991,174.286 30.034 L 172.750 30.069 174.207 30.124 C 175.848 30.187,176.333 30.024,176.333 29.411 C 176.333 28.930,176.736 28.856,176.980 29.292 C 177.184 29.656,177.559 28.827,177.447 28.261 C 177.384 27.946,177.377 27.949,177.356 28.297 C 177.330 28.732,176.900 28.966,176.628 28.694 C 176.494 28.561,176.501 28.271,176.653 27.630 C 176.768 27.146,176.836 26.450,176.805 26.083 C 176.748 25.432,176.744 25.438,176.626 26.333 M167.501 25.755 C 167.502 25.844,167.652 26.142,167.836 26.417 C 168.682 27.684,168.887 28.309,168.600 28.748 C 168.228 29.315,168.276 29.498,168.672 29.023 C 169.062 28.556,169.092 28.019,168.755 27.574 C 168.621 27.396,168.508 27.122,168.505 26.967 C 168.502 26.811,168.402 26.623,168.282 26.550 C 168.161 26.477,167.936 26.231,167.782 26.005 C 167.627 25.778,167.500 25.665,167.501 25.755 M177.447 26.108 C 177.385 26.171,177.345 26.603,177.358 27.069 L 177.383 27.917 177.491 27.167 L 177.599 26.417 178.810 27.652 C 179.476 28.331,180.448 29.454,180.969 30.147 C 181.490 30.840,182.197 31.709,182.540 32.079 C 182.882 32.448,183.163 32.811,183.165 32.886 C 183.166 32.961,183.363 33.280,183.603 33.594 C 183.874 33.949,184.006 34.293,183.952 34.500 C 183.904 34.684,183.932 34.792,184.016 34.740 C 184.307 34.560,184.163 33.888,183.750 33.500 C 183.521 33.285,183.333 33.040,183.333 32.957 C 183.333 32.776,181.939 30.948,181.292 30.280 C 181.040 30.020,180.833 29.720,180.833 29.612 C 180.832 29.333,177.584 25.971,177.447 26.108 M152.350 26.383 C 152.249 26.484,152.173 26.833,152.180 27.158 C 152.193 27.772,152.234 27.736,152.406 26.956 C 152.518 26.448,152.597 26.447,154.195 26.951 C 154.623 27.086,155.110 27.168,155.278 27.133 C 155.446 27.099,155.133 26.949,154.583 26.800 C 154.033 26.651,153.347 26.455,153.059 26.365 C 152.694 26.250,152.478 26.256,152.350 26.383 M164.347 27.141 C 164.075 27.650,164.131 27.792,164.434 27.360 C 164.581 27.150,164.662 26.939,164.614 26.892 C 164.566 26.844,164.446 26.956,164.347 27.141 M169.797 27.822 C 170.135 28.365,170.438 28.784,170.470 28.752 C 170.539 28.683,169.372 26.833,169.259 26.833 C 169.216 26.833,169.458 27.278,169.797 27.822 M192.000 27.015 C 191.771 27.098,191.208 27.274,190.750 27.405 C 190.275 27.541,190.082 27.648,190.302 27.655 C 190.514 27.661,191.057 27.546,191.508 27.398 C 192.736 26.996,192.902 27.124,192.780 28.379 C 192.403 32.253,189.186 37.506,185.910 39.594 C 185.639 39.767,185.379 39.952,185.333 40.005 C 185.239 40.113,184.410 40.618,183.417 41.172 C 178.841 43.723,166.647 43.804,162.149 41.312 C 157.030 38.476,153.762 34.296,152.674 29.193 C 152.505 28.400,152.359 27.955,152.350 28.206 C 152.298 29.615,153.531 33.084,154.694 34.803 C 156.061 36.824,159.498 40.333,160.110 40.333 C 160.173 40.333,160.342 40.438,160.487 40.566 C 161.289 41.275,163.745 42.329,165.833 42.861 C 167.981 43.408,177.353 43.408,179.500 42.861 C 186.099 41.181,191.428 35.835,192.916 29.401 C 193.413 27.255,193.158 26.592,192.000 27.015 M155.926 27.411 C 156.104 27.546,156.512 27.653,156.833 27.650 L 157.417 27.644 156.667 27.408 C 155.707 27.106,155.523 27.106,155.926 27.411 M165.363 27.662 C 165.163 27.932,165.000 28.226,165.000 28.315 C 165.000 28.404,164.881 28.595,164.737 28.740 C 164.592 28.884,164.502 29.088,164.536 29.192 C 164.571 29.296,164.880 28.911,165.222 28.335 C 165.886 27.220,165.964 26.849,165.363 27.662 M158.000 27.840 C 158.321 27.914,158.883 28.062,159.250 28.170 C 160.186 28.443,161.153 28.559,160.833 28.360 C 160.696 28.274,160.190 28.151,159.709 28.086 C 159.227 28.022,158.792 27.901,158.740 27.818 C 158.689 27.735,158.370 27.675,158.032 27.686 L 157.417 27.705 158.000 27.840 M188.929 27.814 C 188.879 27.895,188.366 28.011,187.789 28.073 C 187.212 28.135,186.629 28.261,186.495 28.353 C 186.317 28.476,186.409 28.499,186.833 28.438 C 188.751 28.162,190.339 27.685,189.385 27.672 C 189.184 27.669,188.979 27.733,188.929 27.814 M163.814 28.225 C 163.579 28.743,163.137 28.919,162.684 28.676 C 162.503 28.579,162.069 28.512,161.719 28.527 L 161.083 28.553 161.667 28.622 C 161.987 28.660,162.321 28.760,162.408 28.845 C 162.756 29.185,163.472 29.007,163.840 28.490 C 164.040 28.210,164.160 27.938,164.108 27.886 C 164.055 27.833,163.923 27.986,163.814 28.225 M184.667 28.709 C 184.233 28.843,184.164 28.907,184.397 28.961 C 184.569 29.000,184.869 28.954,185.064 28.857 C 185.258 28.760,185.604 28.650,185.833 28.613 C 186.190 28.555,186.178 28.544,185.750 28.538 C 185.475 28.534,184.987 28.611,184.667 28.709 M182.211 29.120 C 182.464 29.158,182.839 29.157,183.044 29.117 C 183.249 29.078,183.042 29.046,182.583 29.048 C 182.125 29.049,181.957 29.081,182.211 29.120 M167.838 30.240 C 167.376 31.317,167.428 31.431,167.924 30.429 C 168.148 29.978,168.296 29.574,168.253 29.531 C 168.210 29.488,168.023 29.807,167.838 30.240 M177.202 30.595 C 177.320 30.739,177.567 31.017,177.750 31.212 C 177.933 31.406,178.196 31.769,178.333 32.018 C 178.856 32.962,180.533 35.356,180.615 35.274 C 180.662 35.227,180.615 35.090,180.511 34.969 C 180.406 34.849,179.855 34.037,179.286 33.165 C 178.129 31.395,177.316 30.333,177.118 30.333 C 177.046 30.333,177.084 30.451,177.202 30.595 M163.437 31.911 C 163.197 32.512,163.009 33.171,163.019 33.377 C 163.037 33.711,163.046 33.716,163.111 33.417 C 163.151 33.233,163.246 32.933,163.322 32.750 C 163.398 32.567,163.593 32.097,163.756 31.707 C 163.919 31.316,164.012 30.957,163.963 30.908 C 163.914 30.859,163.678 31.310,163.437 31.911 M167.184 31.801 C 167.071 32.012,167.015 32.275,167.059 32.384 C 167.105 32.497,167.146 32.464,167.154 32.306 C 167.161 32.153,167.253 31.999,167.358 31.964 C 167.464 31.929,167.514 31.791,167.470 31.659 C 167.410 31.480,167.336 31.517,167.184 31.801 M198.875 32.250 C 198.877 32.617,198.911 32.747,198.951 32.540 C 198.991 32.332,198.990 32.032,198.948 31.873 C 198.906 31.714,198.874 31.883,198.875 32.250 M166.671 33.071 C 166.577 33.319,166.500 33.614,166.500 33.728 C 166.500 33.841,166.436 34.005,166.357 34.092 C 166.184 34.285,165.667 35.883,165.667 36.227 C 165.667 36.364,165.553 36.511,165.413 36.554 C 165.223 36.613,165.230 36.627,165.443 36.608 C 165.708 36.585,165.794 36.404,166.164 35.083 C 166.241 34.808,166.460 34.176,166.649 33.677 C 166.839 33.179,166.960 32.738,166.918 32.696 C 166.877 32.654,166.766 32.823,166.671 33.071 M180.667 35.732 C 180.667 35.860,180.781 36.008,180.921 36.062 C 181.128 36.141,181.142 36.098,180.998 35.830 C 180.791 35.443,180.667 35.407,180.667 35.732 M181.167 36.420 C 181.167 36.567,181.978 37.800,182.141 37.901 C 182.226 37.953,182.394 37.866,182.515 37.706 C 182.698 37.464,182.697 37.449,182.509 37.616 C 182.256 37.840,181.811 37.398,181.595 36.708 C 181.494 36.387,181.167 36.166,181.167 36.420 " stroke="none" fill="#7c7c7c" fill-rule="evenodd"></path><path id="path4" d="M153.750 22.087 C 154.801 22.379,155.096 22.377,154.333 22.083 C 154.012 21.960,153.563 21.858,153.333 21.857 C 153.092 21.856,153.268 21.953,153.750 22.087 M155.667 22.669 C 155.804 22.757,156.135 22.829,156.403 22.831 C 157.047 22.834,156.907 22.738,156.083 22.612 C 155.629 22.542,155.496 22.560,155.667 22.669 M158.417 23.421 C 158.783 23.542,159.346 23.639,159.667 23.637 C 160.136 23.633,160.055 23.588,159.250 23.407 C 157.994 23.124,157.537 23.131,158.417 23.421 M188.417 23.434 L 187.583 23.662 188.317 23.575 C 188.721 23.527,189.171 23.418,189.317 23.332 C 189.665 23.129,189.437 23.155,188.417 23.434 M160.700 23.938 C 160.819 24.057,161.442 24.193,162.083 24.241 C 165.832 24.517,166.064 24.649,165.167 26.000 C 164.892 26.412,164.670 26.825,164.672 26.917 C 164.678 27.198,165.833 25.284,165.833 24.993 C 165.833 24.663,165.164 24.333,164.495 24.333 C 164.225 24.333,163.685 24.260,163.294 24.170 C 161.776 23.822,160.467 23.705,160.700 23.938 M186.917 23.758 C 186.733 23.830,184.975 24.085,182.417 24.412 C 181.500 24.529,181.050 24.630,181.417 24.637 C 181.783 24.644,182.608 24.576,183.250 24.487 C 183.892 24.397,184.970 24.256,185.647 24.174 C 186.324 24.091,186.957 23.943,187.055 23.845 C 187.238 23.662,187.209 23.644,186.917 23.758 M167.733 24.234 C 167.683 24.363,167.836 24.774,168.071 25.148 C 168.307 25.521,168.500 25.932,168.500 26.060 C 168.500 26.188,168.612 26.386,168.750 26.500 C 168.887 26.614,169.000 26.772,169.000 26.850 C 169.000 26.928,169.319 27.480,169.708 28.077 C 170.098 28.674,170.568 29.407,170.753 29.706 C 171.312 30.609,171.747 30.448,171.762 29.333 L 171.775 28.417 171.712 29.292 C 171.615 30.660,171.452 30.542,169.868 27.951 C 169.207 26.870,168.667 25.880,168.667 25.752 C 168.667 25.624,168.596 25.476,168.511 25.423 C 168.377 25.341,167.833 24.383,167.833 24.231 C 167.833 24.202,168.527 24.154,169.375 24.124 L 170.917 24.069 169.370 24.035 C 168.170 24.008,167.803 24.053,167.733 24.234 M174.625 24.121 C 174.923 24.158,175.410 24.158,175.708 24.121 C 176.006 24.084,175.762 24.053,175.167 24.053 C 174.571 24.053,174.327 24.084,174.625 24.121 M171.163 24.966 L 171.243 25.750 171.300 25.103 C 171.331 24.747,171.294 24.394,171.219 24.319 C 171.144 24.244,171.118 24.535,171.163 24.966 M172.833 24.289 C 172.178 24.409,171.998 24.655,172.025 25.395 L 172.050 26.083 172.150 25.333 C 172.245 24.620,172.279 24.581,172.833 24.530 C 173.154 24.500,173.488 24.407,173.575 24.321 C 173.741 24.159,173.579 24.152,172.833 24.289 M176.659 24.879 C 176.740 25.566,176.743 25.569,176.800 25.020 C 176.832 24.711,176.794 24.394,176.716 24.316 C 176.639 24.239,176.613 24.492,176.659 24.879 M178.542 24.787 C 178.244 24.824,178.000 24.908,178.000 24.973 C 178.000 25.118,180.456 24.933,180.612 24.777 C 180.726 24.663,179.495 24.669,178.542 24.787 M166.713 25.208 C 166.396 25.618,166.310 25.910,166.611 25.557 C 166.779 25.359,167.067 25.161,167.250 25.118 C 167.566 25.043,167.565 25.038,167.229 25.019 C 167.034 25.009,166.802 25.094,166.713 25.208 M167.502 25.417 C 167.502 25.508,167.651 25.808,167.833 26.083 C 168.265 26.735,168.265 26.503,167.834 25.796 C 167.651 25.496,167.501 25.325,167.502 25.417 M178.167 25.480 C 178.167 25.543,178.631 26.041,179.199 26.589 C 179.767 27.136,180.123 27.437,179.991 27.257 C 179.640 26.782,178.167 25.346,178.167 25.480 M177.667 26.036 C 177.667 26.092,177.929 26.408,178.250 26.739 C 178.571 27.069,178.833 27.278,178.833 27.202 C 178.833 27.127,178.571 26.811,178.250 26.500 C 177.929 26.189,177.667 25.980,177.667 26.036 M165.372 27.429 C 165.165 27.743,165.030 28.000,165.070 28.000 C 165.186 28.000,165.877 26.988,165.808 26.919 C 165.774 26.885,165.578 27.114,165.372 27.429 M154.667 27.177 C 154.987 27.272,155.475 27.419,155.750 27.503 C 156.212 27.645,156.226 27.638,155.926 27.412 C 155.749 27.277,155.449 27.166,155.260 27.164 C 155.071 27.163,154.729 27.127,154.500 27.083 C 154.271 27.040,154.346 27.082,154.667 27.177 M191.523 27.358 C 191.215 27.446,190.993 27.549,191.029 27.585 C 191.065 27.621,191.467 27.548,191.922 27.423 C 192.378 27.299,192.600 27.197,192.417 27.197 C 192.233 27.197,191.831 27.269,191.523 27.358 M176.574 27.906 C 176.430 28.676,176.903 29.228,177.240 28.682 C 177.292 28.599,177.175 28.573,176.981 28.623 C 176.652 28.709,176.637 28.670,176.746 28.024 C 176.886 27.196,176.728 27.087,176.574 27.906 M157.583 27.916 C 158.740 28.189,159.017 28.214,158.667 28.014 C 158.529 27.935,158.004 27.828,157.500 27.775 L 156.583 27.680 157.583 27.916 M181.022 28.542 C 181.732 29.257,181.878 29.331,182.529 29.311 L 183.250 29.289 182.447 29.177 C 182.005 29.116,181.591 28.994,181.527 28.908 C 181.462 28.821,181.145 28.525,180.822 28.250 C 180.487 27.964,180.572 28.089,181.022 28.542 M189.250 27.923 C 188.616 28.213,188.839 28.213,190.000 27.924 C 190.795 27.725,190.839 27.695,190.333 27.694 C 190.012 27.694,189.525 27.797,189.250 27.923 M159.014 28.227 C 159.052 28.259,159.308 28.337,159.583 28.398 C 159.948 28.480,160.016 28.464,159.833 28.341 C 159.608 28.189,158.847 28.082,159.014 28.227 M187.500 28.336 C 187.324 28.451,187.423 28.468,187.833 28.392 C 188.552 28.261,188.688 28.166,188.153 28.169 C 187.931 28.171,187.637 28.246,187.500 28.336 M186.375 28.615 C 186.535 28.657,186.798 28.657,186.958 28.615 C 187.119 28.573,186.987 28.539,186.667 28.539 C 186.346 28.539,186.215 28.573,186.375 28.615 M183.627 29.118 C 183.834 29.158,184.134 29.156,184.294 29.115 C 184.453 29.073,184.283 29.040,183.917 29.042 C 183.550 29.044,183.420 29.078,183.627 29.118 M164.353 29.397 C 164.342 29.570,164.192 29.945,164.019 30.230 C 163.846 30.516,163.656 30.938,163.596 31.167 C 163.537 31.396,163.719 31.139,164.001 30.596 C 164.283 30.053,164.481 29.490,164.443 29.346 C 164.389 29.147,164.367 29.160,164.353 29.397 M172.569 29.667 L 172.804 30.250 174.262 30.299 C 175.064 30.325,175.779 30.288,175.852 30.215 C 175.925 30.143,175.276 30.107,174.409 30.136 C 173.156 30.179,172.833 30.143,172.833 29.960 C 172.833 29.834,172.721 29.585,172.584 29.407 C 172.360 29.117,172.359 29.145,172.569 29.667 M176.861 29.733 C 176.839 30.260,176.951 30.526,177.458 31.143 C 177.802 31.561,178.158 32.032,178.250 32.188 C 178.607 32.798,180.030 34.833,180.098 34.833 C 180.203 34.833,179.368 33.522,178.809 32.809 C 178.548 32.475,178.333 32.122,178.333 32.023 C 178.333 31.925,178.127 31.621,177.875 31.348 C 177.082 30.489,177.024 30.387,176.956 29.727 L 176.889 29.083 176.861 29.733 M180.833 29.640 C 180.833 29.817,181.661 30.728,181.745 30.643 C 181.779 30.610,181.587 30.338,181.320 30.039 C 181.052 29.740,180.833 29.560,180.833 29.640 M167.694 30.924 C 167.587 31.158,167.503 31.477,167.507 31.633 C 167.511 31.789,167.620 31.620,167.750 31.256 C 168.019 30.502,167.983 30.289,167.694 30.924 M182.163 31.328 C 182.357 31.601,182.601 31.876,182.705 31.940 C 182.809 32.004,182.684 31.782,182.427 31.445 C 181.870 30.715,181.660 30.622,182.163 31.328 M163.178 31.979 C 162.674 32.920,162.754 33.787,163.436 34.772 C 163.792 35.286,164.188 35.867,164.315 36.062 C 164.754 36.732,165.514 37.247,165.677 36.984 C 165.888 36.643,167.202 32.646,167.127 32.572 C 167.092 32.537,166.970 32.788,166.855 33.129 C 166.740 33.471,166.546 34.012,166.423 34.333 C 166.300 34.654,166.090 35.292,165.955 35.750 C 165.625 36.875,165.338 36.879,164.469 35.770 C 163.094 34.015,162.875 33.457,163.203 32.545 C 163.500 31.719,163.486 31.404,163.178 31.979 M183.333 32.943 C 183.333 33.034,183.540 33.290,183.792 33.513 L 184.250 33.917 183.833 33.417 C 183.604 33.142,183.398 32.885,183.375 32.847 C 183.352 32.809,183.333 32.852,183.333 32.943 M184.186 34.195 C 184.175 34.348,184.059 34.685,183.927 34.945 C 183.795 35.204,183.558 35.717,183.401 36.083 C 182.742 37.618,182.350 38.066,181.964 37.724 C 181.623 37.421,181.621 37.422,181.815 37.792 C 182.091 38.317,182.634 38.273,182.849 37.709 C 182.945 37.457,183.122 37.138,183.242 37.000 C 183.362 36.863,183.516 36.563,183.583 36.333 C 183.651 36.104,183.852 35.592,184.030 35.196 C 184.208 34.799,184.320 34.349,184.279 34.196 C 184.211 33.936,184.204 33.936,184.186 34.195 " stroke="none" fill="#6c8494" fill-rule="evenodd"></path></g></svg>