<svg xmlns="http://www.w3.org/2000/svg" xmlns:xlink="http://www.w3.org/1999/xlink" width="130" height="131" fill="none" xmlns:v="https://vecta.io/nano"><style><![CDATA[.B{fill-rule:evenodd}.C{fill:#f4f6fb}.D{color-interpolation-filters:sRGB}]]></style><path fill="#e5e5e5" d="M0 0h130v131H0z"/><g clip-path="url(#C)"><path fill="#000" d="M-859-2811H763V8168H-859z"/><rect x="-40" y="-17.003" width="209" height="202" rx="10" fill="#e7eaff" fill-opacity=".1"/><g opacity=".5" class="B"><path opacity=".33" d="M78.667 66.745H53.587v-2h25.079v2z" fill="#fff"/><g filter="url(#A)" class="C"><path d="M91 46.745c-10.493 0-19 8.507-19 19 0 6.357 3.122 11.985 7.917 15.434v-2.232c0-4.84 3.14-9.12 7.757-10.572 2.165-.681 4.488-.681 6.653 0 4.617 1.453 7.756 5.733 7.756 10.572v2.232C106.878 77.73 110 72.102 110 65.745c0-10.493-8.507-19-19-19zm-6.333 11.083c0-3.498 2.835-6.333 6.333-6.333s6.333 2.835 6.333 6.333v1.583c0 3.498-2.835 6.333-6.333 6.333s-6.333-2.835-6.333-6.333v-1.583z"/><use xlink:href="#D"/></g><g filter="url(#B)" class="C"><path d="M40 46.745c-10.493 0-19 8.507-19 19 0 6.357 3.122 11.985 7.917 15.434v-2.232c0-4.84 3.14-9.12 7.757-10.572 2.165-.681 4.488-.681 6.653 0 4.617 1.453 7.757 5.733 7.757 10.572v2.232C55.878 77.73 59 72.102 59 65.745c0-10.493-8.507-19-19-19zm-6.333 11.083c0-3.498 2.836-6.333 6.333-6.333s6.333 2.835 6.333 6.333v1.583c0 3.498-2.836 6.333-6.333 6.333s-6.333-2.835-6.333-6.333v-1.583z"/><path d="M40 81.745c8.837 0 16-7.163 16-16s-7.163-16-16-16-16 7.163-16 16 7.163 16 16 16zm0 3c10.493 0 19-8.507 19-19s-8.507-19-19-19-19 8.507-19 19 8.507 19 19 19z"/></g></g></g><defs><filter id="A" x="62" y="41.745" width="58" height="58" filterUnits="userSpaceOnUse" class="D"><feFlood flood-opacity="0" result="A"/><feColorMatrix in="SourceAlpha" values="0 0 0 0 0 0 0 0 0 0 0 0 0 0 0 0 0 0 127 0" result="B"/><feOffset dy="5"/><feGaussianBlur stdDeviation="5"/><feComposite in2="B" operator="out"/><feColorMatrix values="0 0 0 0 0 0 0 0 0 0 0 0 0 0 0 0 0 0 0.1 0"/><feBlend in2="A"/><feBlend in="SourceGraphic"/></filter><filter id="B" x="11" y="41.745" width="58" height="58" filterUnits="userSpaceOnUse" class="D"><feFlood flood-opacity="0" result="A"/><feColorMatrix in="SourceAlpha" values="0 0 0 0 0 0 0 0 0 0 0 0 0 0 0 0 0 0 127 0" result="B"/><feOffset dy="5"/><feGaussianBlur stdDeviation="5"/><feComposite in2="B" operator="out"/><feColorMatrix values="0 0 0 0 0 0 0 0 0 0 0 0 0 0 0 0 0 0 0.1 0"/><feBlend in2="A"/><feBlend in="SourceGraphic"/></filter><clipPath id="C"><path fill="#fff" transform="translate(-859 -2811)" d="M0 0h1622v10979H0z"/></clipPath><path id="D" d="M91 81.745c8.837 0 16-7.163 16-16s-7.163-16-16-16-16 7.163-16 16 7.163 16 16 16zm0 3c10.493 0 19-8.507 19-19s-8.507-19-19-19-19 8.507-19 19 8.507 19 19 19z"/></defs></svg>