<svg xmlns="http://www.w3.org/2000/svg" xmlns:xlink="http://www.w3.org/1999/xlink" width="130" height="131" fill="none" xmlns:v="https://vecta.io/nano"><path fill="#e5e5e5" d="M0 0h130v131H0z"/><g clip-path="url(#A)"><path fill="#000" d="M-640-2599H982V8380H-640z"/><rect x="-40" y="-17.003" width="209" height="202" rx="10" fill="#e7eaff" fill-opacity=".1"/><g opacity=".5" fill-rule="evenodd"><g fill="#fff"><path opacity=".33" d="M64.59 40.745c-2.944 0-5.768.509-8.388 1.442l-.671-1.884a26.95 26.95 0 0 1 9.059-1.558 26.91 26.91 0 0 1 10.81 2.252l-.801 1.832a24.91 24.91 0 0 0-10.009-2.084zM41.506 56.13a24.92 24.92 0 0 0 0 19.23l-1.846.77a26.92 26.92 0 0 1-2.07-10.385 26.92 26.92 0 0 1 2.07-10.385l1.846.77zm48.085 9.615a24.93 24.93 0 0 0-1.721-9.135l1.862-.731c1.201 3.057 1.859 6.386 1.859 9.866a26.92 26.92 0 0 1-2.07 10.385l-1.846-.77a24.92 24.92 0 0 0 1.915-9.615zm-25 25a24.92 24.92 0 0 0 9.528-1.88l.763 1.849c-3.173 1.309-6.649 2.031-10.291 2.031-3.319 0-6.5-.599-9.44-1.697l.699-1.874c2.719 1.015 5.664 1.57 8.741 1.57zm-.702-24.442L51.256 53.669l1.414-1.414 12.634 12.634 12.143-12.143 1.414 1.414-12.143 12.143 12.634 12.634-1.414 1.414-12.634-12.634-12.026 12.026-1.414-1.414L63.89 66.303z"/></g><g fill="#f4f6fb"><use xlink:href="#B"/><use xlink:href="#C"/><path d="M85.59 32.745c-6.627 0-12 5.373-12 12 0 4.015 1.972 7.57 5 9.748v-1.41a7 7 0 0 1 9.101-6.677 7 7 0 0 1 4.899 6.677v1.41c3.028-2.178 5-5.733 5-9.748 0-6.627-5.373-12-12-12zm-4 7a4 4 0 1 1 8 0v1a4 4 0 1 1-8 0v-1z"/><path d="M85.59 53.745a9 9 0 1 0 0-18 9 9 0 1 0 0 18zm0 3c6.627 0 12-5.373 12-12s-5.373-12-12-12-12 5.373-12 12 5.373 12 12 12z"/><use xlink:href="#D"/><path d="M85.59 95.745a9 9 0 1 0 0-18 9 9 0 1 0 0 18zm0 3c6.627 0 12-5.373 12-12s-5.373-12-12-12-12 5.373-12 12 5.373 12 12 12zm-41-24c-6.627 0-12 5.373-12 12 0 4.015 1.972 7.57 5 9.748v-1.409a7 7 0 1 1 14 0v1.409c3.028-2.178 5-5.733 5-9.748 0-6.627-5.373-12-12-12zm-4 7a4 4 0 1 1 8 0v1a4 4 0 1 1-8 0v-1z"/><path d="M44.59 95.745a9 9 0 1 0 0-18 9 9 0 1 0 0 18zm0 3c6.627 0 12-5.373 12-12s-5.373-12-12-12-12 5.373-12 12 5.373 12 12 12z"/></g></g></g><defs><clipPath id="A"><path fill="#fff" transform="translate(-640 -2599)" d="M0 0h1622v10979H0z"/></clipPath><path id="B" d="M44.59 32.745c-6.627 0-12 5.373-12 12 0 4.015 1.972 7.57 5 9.748v-1.41a7 7 0 0 1 9.101-6.677 7 7 0 0 1 4.899 6.677v1.41c3.028-2.178 5-5.733 5-9.748 0-6.627-5.373-12-12-12zm-4 7a4 4 0 1 1 8 0v1a4 4 0 1 1-8 0v-1z"/><path id="C" d="M44.59 53.745a9 9 0 1 0 0-18 9 9 0 1 0 0 18zm0 3c6.627 0 12-5.373 12-12s-5.373-12-12-12-12 5.373-12 12 5.373 12 12 12z"/><path id="D" d="M85.59 74.745c-6.627 0-12 5.373-12 12 0 4.015 1.972 7.57 5 9.748v-1.409a7 7 0 0 1 9.101-6.677 7 7 0 0 1 4.899 6.677v1.409c3.028-2.178 5-5.733 5-9.748 0-6.627-5.373-12-12-12zm-4 7a4 4 0 1 1 8 0v1a4 4 0 1 1-8 0v-1z"/></defs></svg>