<svg xmlns="http://www.w3.org/2000/svg" xmlns:xlink="http://www.w3.org/1999/xlink" width="130" height="131" fill="none" xmlns:v="https://vecta.io/nano"><path fill="#e5e5e5" d="M0 0h130v131H0z"/><g clip-path="url(#A)"><path fill="#000" d="M-421-2811h1622V8168H-421z"/><rect x="-40" y="-17.003" width="209" height="202" rx="10" fill="#e7eaff" fill-opacity=".1"/><g opacity=".5" fill="#f4f6fb"><use xlink:href="#B"/><path d="M48 80.228c0-2.308 1.515-4.342 3.725-5.003h0c2.136-.639 4.413-.639 6.549 0l2.175.651c.92.275 1.55 1.121 1.55 2.082v8.788a1 1 0 0 1-1 1H48.883c-.488 0-.883-.395-.883-.883v-6.634z"/><g fill-rule="evenodd"><path d="M73 71.745a7 7 0 0 1-7 7H55v-4h11a3 3 0 0 0 3-3h4zm-9-28a1 1 0 0 0-1 1v23a1 1 0 0 0 1 1h16a1 1 0 0 0 1-1v-23a1 1 0 0 0-1-1H64zm7.937 19.169c-2.88 0-4.823-1.552-4.872-3.803h3.012c.042.827.839 1.376 1.865 1.376 1.081 0 1.805-.616 1.805-1.509 0-.912-.767-1.533-2.047-1.533h-1.455v-2.016l2.632-2.56v-.078h-5.192v-2.409h8.79v2.149l-3.332 3.139v.097c2.765.308 3.737 1.938 3.737 3.441 0 2.228-2.137 3.707-4.944 3.707z"/></g><path d="M86 66.745a4 4 0 0 1 4-4h0a4 4 0 0 1 4 4v1a4 4 0 0 1-4 4h0a4 4 0 0 1-4-4v-1zm-4 13.483a5.22 5.22 0 0 1 3.725-5.003h0c2.136-.639 4.413-.639 6.549 0l2.175.651a2.17 2.17 0 0 1 1.55 2.082v8.788a1 1 0 0 1-1 1H82.883c-.488 0-.883-.395-.883-.883v-6.634z"/><g fill-rule="evenodd"><path d="M107 71.745a7 7 0 0 1-7 7H89v-4h11a3 3 0 0 0 3-3h4zm-9-28a1 1 0 0 0-1 1v23a1 1 0 0 0 1 1h16a1 1 0 0 0 1-1v-23a1 1 0 0 0-1-1H98zm12.857 14.81c0 2.548-1.919 4.359-4.799 4.359-2.704 0-4.654-1.582-4.691-3.803h2.898c.042.912.833 1.509 1.793 1.509 1.129 0 1.926-.797 1.92-1.98.006-1.189-.803-1.992-1.938-1.992-.724-.006-1.413.338-1.745.894l-2.638-.495.537-6.665h7.933v2.409h-5.475l-.284 2.916h.072c.411-.682 1.383-1.183 2.554-1.183 2.221 0 3.863 1.678 3.863 4.033z"/></g><path d="M18 66.745a4 4 0 0 1 4-4h0a4 4 0 0 1 4 4v1a4 4 0 0 1-4 4h0a4 4 0 0 1-4-4v-1zm-4 13.483a5.22 5.22 0 0 1 3.725-5.003h0c2.136-.639 4.413-.639 6.549 0l2.175.651a2.17 2.17 0 0 1 1.55 2.082v8.788a1 1 0 0 1-1 1H14.883c-.488 0-.883-.395-.883-.883v-6.634z"/><g fill-rule="evenodd"><path d="M39 71.745a7 7 0 0 1-7 7H21v-4h11a3 3 0 0 0 3-3h4zm-9-28a1 1 0 0 0-1 1v23a1 1 0 0 0 1 1h16a1 1 0 0 0 1-1v-23a1 1 0 0 0-1-1H30zm8.871 16.947H32.9v-2.33l4.504-7.981h2.861l-4.401 7.86v.097h3.103v-3.32h2.699v3.32h1.539v2.354h-1.539v2.053h-2.795v-2.053z"/></g></g></g><defs><clipPath id="A"><path fill="#fff" transform="translate(-421 -2811)" d="M0 0h1622v10979H0z"/></clipPath><path id="B" d="M52 66.745a4 4 0 0 1 4-4h0a4 4 0 0 1 4 4v1a4 4 0 0 1-4 4h0a4 4 0 0 1-4-4v-1z"/></defs></svg>