<svg xmlns="http://www.w3.org/2000/svg" width="130" height="131" fill="none" xmlns:v="https://vecta.io/nano"><path fill="#e5e5e5" d="M0 0h130v131H0z"/><g clip-path="url(#A)"><path fill="#000" d="M-640-2811H982V8168H-640z"/><rect x="-40" y="-17.003" width="209" height="202" rx="10" fill="#e7eaff" fill-opacity=".1"/><g opacity=".5" fill-rule="evenodd" fill="#f4f6fb"><path d="M90 41.745a1 1 0 0 1 1-1h18a1 1 0 0 1 1 1v48a1 1 0 0 1-1 1H91a1 1 0 0 1-1-1v-48zm12.403 29.636h-2.771l-3.049 1.896v2.584l2.765-1.69h.072v9.575h2.982V71.382zM96 48.563c0-2.109 1.791-3.818 4-3.818s4 1.709 4 3.818v.955c0 2.109-1.791 3.818-4 3.818s-4-1.709-4-3.818v-.955zm-3 12.732c0-2.918 1.983-5.498 4.899-6.374a7.32 7.32 0 0 1 4.202 0c2.916.876 4.899 3.456 4.899 6.374v1.756c0 .383-.326.694-.727.694H93.727c-.402 0-.727-.311-.727-.694v-1.756zm-26-19.55a1 1 0 0 1 1-1h18a1 1 0 0 1 1 1v48a1 1 0 0 1-1 1H68a1 1 0 0 1-1-1v-48zm5.491 42h9.152v-2.409h-5.011v-.078l1.479-1.364c2.68-2.336 3.381-3.526 3.381-4.944 0-2.228-1.817-3.737-4.624-3.737-2.735 0-4.564 1.576-4.558 4.093h2.831c0-1.117.688-1.763 1.715-1.763 1.008 0 1.739.622 1.739 1.642 0 .924-.579 1.551-1.594 2.463l-4.51 3.948v2.149zM73 48.563c0-2.109 1.791-3.818 4-3.818s4 1.709 4 3.818v.955c0 2.109-1.791 3.818-4 3.818s-4-1.709-4-3.818v-.955zm-3 12.732c0-2.918 1.983-5.498 4.899-6.374a7.32 7.32 0 0 1 4.202 0c2.916.876 4.899 3.456 4.899 6.374v1.756c0 .383-.326.694-.727.694H70.727c-.402 0-.727-.311-.727-.694v-1.756zm-26-19.55a1 1 0 0 1 1-1h18a1 1 0 0 1 1 1v48a1 1 0 0 1-1 1H45a1 1 0 0 1-1-1v-48zm5.066 38.366c.048 2.252 1.992 3.803 4.872 3.803 2.807 0 4.944-1.479 4.944-3.707 0-1.503-.972-3.133-3.737-3.441v-.097l3.332-3.139v-2.149h-8.79v2.409h5.192v.079l-2.632 2.56v2.016h1.455c1.28 0 2.046.622 2.046 1.533 0 .893-.724 1.509-1.805 1.509-1.026 0-1.823-.549-1.865-1.376h-3.012zM50 48.563c0-2.109 1.791-3.818 4-3.818s4 1.709 4 3.818v.955c0 2.109-1.791 3.818-4 3.818s-4-1.709-4-3.818v-.955zm-3 12.732c0-2.918 1.983-5.498 4.899-6.374a7.32 7.32 0 0 1 4.202 0c2.916.876 4.899 3.456 4.899 6.374v1.756c0 .383-.326.694-.727.694H47.727c-.402 0-.727-.311-.727-.694v-1.756zm-26-19.55a1 1 0 0 1 1-1h18a1 1 0 0 1 1 1v48a1 1 0 0 1-1 1H22a1 1 0 0 1-1-1v-48zm4.9 39.948h5.97v2.052h2.795v-2.052h1.539v-2.354h-1.539v-3.32h-2.698v3.32h-3.103v-.097l4.401-7.86h-2.861l-4.504 7.98v2.33zm1.1-33.13c0-2.109 1.791-3.818 4-3.818s4 1.709 4 3.818v.955c0 2.109-1.791 3.818-4 3.818s-4-1.709-4-3.818v-.955zm-3 12.732c0-2.918 1.983-5.498 4.899-6.374a7.32 7.32 0 0 1 4.202 0c2.916.876 4.899 3.456 4.899 6.374v1.756c0 .383-.326.694-.727.694H24.727c-.402 0-.727-.311-.727-.694v-1.756z"/></g></g><defs><clipPath id="A"><path fill="#fff" transform="translate(-640 -2811)" d="M0 0h1622v10979H0z"/></clipPath></defs></svg>