<svg xmlns="http://www.w3.org/2000/svg" xmlns:xlink="http://www.w3.org/1999/xlink" width="130" height="131" fill="none" xmlns:v="https://vecta.io/nano"><path fill="#e5e5e5" d="M0 0h130v131H0z"/><g clip-path="url(#A)"><path fill="#000" d="M-421-2599h1622V8380H-421z"/><rect x="-40" y="-17.003" width="209" height="202" rx="10" fill="#e7eaff" fill-opacity=".1"/><g opacity=".5"><g fill-rule="evenodd" fill="#fff"><use xlink:href="#B" opacity=".33"/><path opacity=".33" d="M49 90.745H35v-2h14v2zm-14 13h14v2H35v-2z"/></g><g fill="#f4f6fb"><path d="M92 93.745a1 1 0 0 1 1-1h32a1 1 0 0 1 1 1v8a1 1 0 0 1-1 1H93a1 1 0 0 1-1-1v-8z"/><use xlink:href="#C"/><use xlink:href="#D"/><path d="M4 100.745a1 1 0 0 1 1-1h32a1 1 0 0 1 1 1v8a1 1 0 0 1-1 1H5a1 1 0 0 1-1-1v-8zm44 0a1 1 0 0 1 1-1h32a1 1 0 0 1 1 1v8a1 1 0 0 1-1 1H49a1 1 0 0 1-1-1v-8z"/></g><g fill-rule="evenodd" fill="#fff"><path opacity=".33" d="M42 23.745h-6v-2h6a2 2 0 0 1 2 2v5.5h6v2h-6v5.5a2 2 0 0 1-2 2h-6v-2h6v-13zm0 32h-6v-2h6a2 2 0 0 1 2 2v5.5h6v2h-6v5.5a2 2 0 0 1-2 2h-6v-2h6v-13zm44-25h-6v-2h6a2 2 0 0 1 2 2v14.5h6v2h-6v14.5a2 2 0 0 1-2 2h-6v-2h6v-31z"/></g><g fill="#f4f6fb"><path d="M4 18.745a1 1 0 0 1 1-1h32a1 1 0 0 1 1 1v8a1 1 0 0 1-1 1H5a1 1 0 0 1-1-1v-8zm44 7a1 1 0 0 1 1-1h32a1 1 0 0 1 1 1v8a1 1 0 0 1-1 1H49a1 1 0 0 1-1-1v-8zm44 17a1 1 0 0 1 1-1h32a1 1 0 0 1 1 1v8a1 1 0 0 1-1 1H93a1 1 0 0 1-1-1v-8zm-44 16a1 1 0 0 1 1-1h32a1 1 0 0 1 1 1v8a1 1 0 0 1-1 1H49a1 1 0 0 1-1-1v-8zm-44-25a1 1 0 0 1 1-1h32a1 1 0 0 1 1 1v8a1 1 0 0 1-1 1H5a1 1 0 0 1-1-1v-8zm0 17a1 1 0 0 1 1-1h32a1 1 0 0 1 1 1v8a1 1 0 0 1-1 1H5a1 1 0 0 1-1-1v-8zm0 15a1 1 0 0 1 1-1h32a1 1 0 0 1 1 1v8a1 1 0 0 1-1 1H5a1 1 0 0 1-1-1v-8z"/></g></g></g><defs><clipPath id="A"><path fill="#fff" transform="translate(-421 -2599)" d="M0 0h1622v10979H0z"/></clipPath><path id="B" d="M86 90.745h-6v-2h6a2 2 0 0 1 2 2v5.5h6v2h-6v5.5a2 2 0 0 1-2 2h-6v-2h6v-13z"/><path id="C" d="M4 85.745a1 1 0 0 1 1-1h32a1 1 0 0 1 1 1v8a1 1 0 0 1-1 1H5a1 1 0 0 1-1-1v-8z"/><path id="D" d="M48 85.745a1 1 0 0 1 1-1h32a1 1 0 0 1 1 1v8a1 1 0 0 1-1 1H49a1 1 0 0 1-1-1v-8z"/></defs></svg>