<?xml version="1.0" standalone="no"?>
<svg xmlns:xlink="http://www.w3.org/1999/xlink" id="wave" style="transform:rotate(0deg); transition: 0.3s" viewBox="0 0 1440 490" version="1.1" xmlns="http://www.w3.org/2000/svg"><defs><linearGradient id="sw-gradient-0" x1="0" x2="0" y1="1" y2="0"><stop stop-color="rgba(25, 118, 210, 1)" offset="0%"/><stop stop-color="rgba(25, 118, 210, 1)" offset="100%"/></linearGradient></defs><path style="transform:translate(0, 0px); opacity:1" fill="url(#sw-gradient-0)" d="M0,196L40,179.7C80,163,160,131,240,130.7C320,131,400,163,480,179.7C560,196,640,196,720,204.2C800,212,880,229,960,220.5C1040,212,1120,180,1200,138.8C1280,98,1360,49,1440,65.3C1520,82,1600,163,1680,212.3C1760,261,1840,278,1920,261.3C2000,245,2080,196,2160,171.5C2240,147,2320,147,2400,179.7C2480,212,2560,278,2640,302.2C2720,327,2800,310,2880,277.7C2960,245,3040,196,3120,155.2C3200,114,3280,82,3360,114.3C3440,147,3520,245,3600,261.3C3680,278,3760,212,3840,220.5C3920,229,4000,310,4080,302.2C4160,294,4240,196,4320,187.8C4400,180,4480,261,4560,261.3C4640,261,4720,180,4800,187.8C4880,196,4960,294,5040,351.2C5120,408,5200,425,5280,367.5C5360,310,5440,180,5520,130.7C5600,82,5680,114,5720,130.7L5760,147L5760,490L5720,490C5680,490,5600,490,5520,490C5440,490,5360,490,5280,490C5200,490,5120,490,5040,490C4960,490,4880,490,4800,490C4720,490,4640,490,4560,490C4480,490,4400,490,4320,490C4240,490,4160,490,4080,490C4000,490,3920,490,3840,490C3760,490,3680,490,3600,490C3520,490,3440,490,3360,490C3280,490,3200,490,3120,490C3040,490,2960,490,2880,490C2800,490,2720,490,2640,490C2560,490,2480,490,2400,490C2320,490,2240,490,2160,490C2080,490,2000,490,1920,490C1840,490,1760,490,1680,490C1600,490,1520,490,1440,490C1360,490,1280,490,1200,490C1120,490,1040,490,960,490C880,490,800,490,720,490C640,490,560,490,480,490C400,490,320,490,240,490C160,490,80,490,40,490L0,490Z"/></svg>